<svg id="Layer_1" data-name="Layer 1" xmlns="http://www.w3.org/2000/svg" viewBox="0 0 1861.25 303.22"><defs><style>.cls-1{fill:#121212;}.cls-2{fill:#ed1c24;}</style></defs><path class="cls-1" d="M90.41,0c15.14,16.67,16.91,31.21,3.92,52.84C86,66.7,92.76,89.39,92.76,110.27h67c.45,8.82.79,15.48,1.09,21.51-20.22,13.23-47.91-7-65.38,12.08l1.1,8.26c22.63,0,45.33,1.12,67.86-.36,17.48-1.14,27.32,3.63,33.43,20.94,8.07,22.85,19.53,44.53,30.26,68.33l29.33-9,8.64,18.43-52,20.13c-11-24-23.21-46.26-31.37-69.84C176,181.38,165,176,145.55,177.36c-22.86,1.63-45.93.38-72.38.38-3-36.21-5.72-71.48-8.87-106.71-.6-6.69-.58-15.43-4.66-19.5C40.1,32.08,48.07,16,63.82,0Z"/><path class="cls-1" d="M0,183.61c11.73-27.42,25.48-53.12,62.51-68.47-4.81,15.67-5.08,28.77-11.8,36.16-22.94,25.25-31.17,52.23-17.1,83.89,11,24.66,42,44.05,68.27,41.63,35.16-3.23,58.47-22,68.66-55.84a9.38,9.38,0,0,1,1.38-2.16c20.85,28.66,19.45,39.58-7.86,61.35C109.86,323.37,32.34,303.58,6,239.81c-2-4.76-4-9.49-6-14.24Z"/><path class="cls-2" d="M1396,147.56c-7.12,41.29-30.54,67.44-66.83,82.56-22.65,9.43-37.09-2.27-45.21-22.82-43.21,21-55.08,16.71-79-28.72-9.42,13.9-16.41,29.55-28.19,39.89-9.3,8.15-25.73,15.08-36.67,12.6-9-2-20.13-18.31-20.88-28.92-3.83-54.23,11.76-103.53,47.62-145.46,10.43-12.21,23.3-13.57,37.77-3.87,6.07,4.07,15,3.94,26.52,6.62,0,8.42.31,21-.07,33.45-.71,23.55-4.49,47.4-1.7,70.5,1.47,12.23,14.06,23.16,21.63,34.68,10.48-10.25,25-18.73,30.59-31.13,11.35-25.24,17.42-52.75,26.61-79,2.83-8.07,7.87-15.78,13.39-22.46,10.52-12.72,20.59-27.9,41.53-18.41,19.55,8.85,22.66,25.31,20.29,43.83-.73,5.72-3.58,11.19-12.81,18.72-2.92-8.07-5.44-16.31-8.9-24.14-2.19-5-4.83-11.2-9.09-13.31-2.84-1.41-10.82,2.14-13.17,5.65-24.73,36.92-35.52,78-31,121.79,1.69,16.63,15.74,11.75,24.09,4.8C1353.2,187.11,1372.82,168.44,1396,147.56Zm-210.7-79.87c-38.22,32.83-57.77,118.51-33.53,142.18C1192,181.69,1212.81,97.44,1185.27,67.69Z"/><path class="cls-2" d="M1435.34,173c0,21.78,1.18,35.84-.54,49.54-.78,6.14-7.39,11.57-11.35,17.32-4.55-5.13-12.77-10-13.09-15.42-3.85-63.58-6.76-127.23-9.07-190.89-.19-5.07,5.85-10.36,9-15.54,4.85,4.93,13.33,9.47,13.94,14.87,3.59,31.91,5.34,64,12.84,98.34,9-16.94,17.3-34.35,27.5-50.58,4.37-7,12.79-11.46,19.37-17.08.59,9.44,4.56,20.33,1.14,28-9.49,21.37-22,41.42-34.21,63.48,44,21.9,82.07,54.45,132.94,56,14.1.43,28.47-7.52,42.71-11.62-4.69-12.29-6.77-26.63-14.66-36.43-13.62-16.93-33.69-29.19-45.57-47-8-11.94-13.54-34-7.5-44.33,7.22-12.37,27.21-19.85,43.12-23.92,8-2.05,23.15,5.74,28,13.41,4.9,7.82,1.08,21,1.08,31.76l-9.73,1.7-17-29.67c-8.43,5.69-21.12,9.85-24.17,17.67-2.57,6.6,4.18,18.94,10.1,26.1C1600.67,121.54,1614,132,1625.65,144c28,28.56,33.61,52.78,17.69,74-12.62,16.83-48.82,22.11-76.5,9.95-11.43-5-19.21-11.06-35-5.6-10.68,3.7-28.3-10.33-42.15-17.66C1473,195.81,1457,185.67,1435.34,173Z"/><path class="cls-2" d="M829.31,81.44c-12.11,22.39-23.65,39.31-30.74,57.89-9,23.53-13.69,48.63-21.66,72.59-2.44,7.32-9.56,13.14-14.53,19.64-3.93-7.68-10.78-15.17-11.3-23.08-2.86-42.64-4-85.4-6.09-128.1a350.41,350.41,0,0,0-4.26-41.56c-2.83-16.44,4.32-22.26,22.16-22.21,2.55,38.32,5.05,75.88,7.78,116.79,13.45-20.86,22.94-39.55,36.18-55.12,18-21.23,36.6-20.29,47.26,5.1,13,30.94,19.94,64.52,27.74,97.36,3.62,15.2,3.09,31.36.31,47.88C846.36,188.34,862,130.94,829.31,81.44Z"/><path class="cls-2" d="M620.13,160.15c15.45,20.79.83,32.3-11,43.39-18.79,17.66-39.24,35.74-67.63,24.78-18.16-7-24.17-24.23-22-43.46.8-6.93.17-14.39,2.6-20.71,13-33.88,25.08-68.34,41.43-100.66C568.39,54,586.15,51,598,45c6.15,12.34,17.37,24.62,17.51,37,.44,37.75-23.05,66.52-44.39,95.39-6.57,8.88-14.18,17-22.09,26.43C571.37,209,571.37,209,620.13,160.15ZM591,72.69c-24.78,14.68-46,63.21-44.54,101C570.07,142.11,589.72,112.84,591,72.69Z"/><path class="cls-2" d="M416,118.61c-4.08,6.33-7,14-12.54,18.65-7.23,6.12-16,11.52-25,14.37-32,10.12-51.45,27-43.67,63.91,1.13,5.37-7.66,12.77-11.86,19.23-4.12-6.86-9.53-13.28-12.07-20.67-4.49-13,9.53-32.25-13.84-39.41-.69-.21,1.4-9.56,2.37-14.62,3.45-18.06,7.08-36.08,10.35-54.17.43-2.37-.16-6.85-1.41-7.3-25.61-9.25-16-23.49-5-36.83,9.58-11.59,15.05-25.71,37.85-22.71,20.7,2.72,42.89-7.83,64.68-10,10-1,20.67,4.2,31,6.59L435.5,46c-12.47,1.83-24.89,4.49-37.43,5.37-60.23,4.26-63.91,7.9-63.31,66.48.07,6.92.6,13.84,1.09,24.69,13.69-4.64,25.8-8.36,37.61-12.86,12.28-4.66,24.27-10.08,36.38-15.16Z"/><path class="cls-2" d="M1036,48.43l-27.25,3.4c0,53.86-.12,105.1.09,156.34.05,14.19-1.16,26.54-26.34,24.89V58.13C960.11,64,944.34,69.24,928.13,71.78c-7.3,1.15-15.48-3.16-23.26-5,5.39-6.56,9.7-17.33,16.35-19,39.24-9.88,78.88-18.4,118.69-25.83,20.72-3.87,42-5.08,63.12-6.26,4.54-.26,9.38,4.77,14.09,7.37-4.43,3-8.46,7.39-13.35,8.73C1081,38,1058,43.46,1035.06,49.18Z"/><path class="cls-2" d="M713.8,94.58c-3.66-4.06-7.44-8-11-12.2-4-4.69-8.86-14.11-11.34-13.5-7.84,1.92-17.2,6-21.18,12.28-3,4.62-.81,15.82,3.25,20.69,10.57,12.71,24,23.1,35.26,35.29,10.06,10.85,20.88,21.8,27.7,34.6,14.65,27.52,0,54.67-31,61-30.43,6.21-56.07-3.3-69-28.11,14.62,2.87,27.37,8,39.62,7.06,13.63-1.08,26.81-7.73,40.19-12-4-11.55-5.19-25.26-12.45-34.2-14.26-17.53-33.35-31.21-47.76-48.64C631,86.53,644.15,53.18,683.2,48.08c11-1.43,26.89,1.27,33.43,8.41,6.81,7.45,5,22.55,7,34.3Z"/><path class="cls-1" d="M1832.68,15.09c20.81.39,32,14.27,27.66,33.57-9.13,41.06-42.39,60.17-75.76,78.17-10.45,5.63-38.84-19.07-34.65-29.77,13.73-35.07,36.24-63.37,71.2-80.39C1824.86,14.85,1829.8,15.44,1832.68,15.09Z"/><path class="cls-1" d="M1726.15,227.68c23.7-18.81,45.94-39.22,71-55.34,15.54-10,37-13.87,49.51,6,12.23,19.35-.79,35.17-14.91,47.72a237.35,237.35,0,0,1-38.39,27.52C1753.22,276.86,1748.69,275.21,1726.15,227.68Z"/><path class="cls-2" d="M462.19,97.7c22.82-27,42.1-54.09,86.34-53.34-3.83,7.83-5.24,16.79-9.42,18.3C493,79.26,485.69,119.34,478.43,159c-3.44,18.75-3.16,38.14-5.82,57.07-.79,5.63-5.86,10.67-9,16-4.28-4.52-11.87-8.74-12.33-13.61Q444,140.5,439.18,62.34c-.28-4.6,7.42-9.67,11.4-14.53,3.87,4.92,10.28,9.46,11.09,14.83C463.38,74.1,462.19,86,462.19,97.7Z"/><path class="cls-2" d="M1035.06,49.18c14.6-5.55,22.25-.12,23,14.8.52,10.35.1,20.74,2.68,33.32,21-26.17,39.65-54.65,83.1-52.31-3.25,7.06-4.51,16.26-8.61,17.72-47.7,17-53.62,58.73-61.21,99.11-3.21,17.08-2.74,34.81-5.42,52-1,6.41-6.22,12.18-9.51,18.24-4.13-5.59-11.44-10.94-11.9-16.81-4.38-55.59-7.59-111.27-11.18-166.88Z"/><path class="cls-1" d="M1727.19,286.15c-16.82.85-33.76,2.9-50.35,1.37-2.83-.26-8.75-19.76-5.35-23.65,8.45-9.66,23.45-23.07,32.14-20.86,11.19,2.85,18.79,19.44,27.94,30.12Z"/><path class="cls-1" d="M1739.67,121.37c10.45,9.77,28.36,18.95,29.2,29.47.8,9.95-15,23-26.24,31.08-3.76,2.72-22.9-6-22.74-8.82.92-16.54,5.48-32.88,8.81-49.29Z"/></svg>