<svg xmlns="http://www.w3.org/2000/svg" width="234" height="100" viewBox="0 0 234.64 100" class="Header_logo__1Blct"><path fill="#b9bbbd" d="M30.54 95.35c0 2.57-2.08 4.65-4.65 4.65H4.65C2.08 100 0 97.92 0 95.35V4.65C0 2.08 2.08 0 4.65 0H25.9c2.57 0 4.65 2.08 4.65 4.65v90.7z"></path><path fill="#f58025" d="M30.54 35.12c.99-1.27 2.01-2.52 3.05-3.76 10.7-12.69 24-23.3 39.99-27.04 0 0-20.11-5.71-40.04.6-1 .32-2 .66-3 1.04v29.16z"></path><linearGradient id="gradient-royal-rehab-logo-tag" gradientUnits="userSpaceOnUse" y1="50.187" x2="30.545" y2="50.187"><stop offset="0" stop-color="#ffe14f"></stop><stop offset="1" stop-color="#f26522"></stop></linearGradient><path fill="url(&quot;#gradient-royal-rehab-logo-tag&quot;)" d="M.83 36.41S0 38.46 0 40.19v54.22s9.97-32.94 30.54-59.3V5.95C18.84 10.41 7.55 19.35.83 36.41"></path><path d="M52.36 51.33c3.86 0 6.6-1.16 6.6-5.05 0-3.79-1.97-5.12-5.76-5.12h-4.42v10.18h3.58zm6.7 8.87l-4.6-6.63c-.6.11-1.58.18-2.32.18h-3.37v9.86h-2.91V38.8h8.11c4.74 0 8.04 2.25 8.04 7.27 0 2.91-1.37 5.55-4.67 6.81l3.86 5.51c1.68 2.32 3.58 2.98 4.88 3.33L65.45 64c-1.37-.11-4.25-.78-6.39-3.8m21.87-6.17c0-3.55-1.09-7.79-5.79-7.79-4.63 0-5.86 4.21-5.86 7.83 0 4 1.4 7.69 5.93 7.69 4.59-.01 5.72-3.91 5.72-7.73m-14.5.21c0-6.63 3.69-10.28 8.81-10.28 5.68 0 8.49 3.65 8.49 10.07 0 6.74-3.72 10-8.74 10-5.29 0-8.56-3.51-8.56-9.79m25.86 9.37h-1.3l-6.21-19.16h3.02l4.18 13.69 1.05 3.44 1.12-3.37 4.74-13.76h2.84l-9.37 26.88h-2.7l2.63-7.72zm22.04-4.07v-4.98l-4.6.18c-2.98.1-4.63 1.54-4.63 3.48 0 2.56 1.37 3.44 3.47 3.44 2.42-.02 5.27-1.84 5.76-2.12m-11.9-1.09c0-4.67 4.21-5.69 7.33-5.76l4.56-.07v-2.56c0-3.05-1.51-3.65-4.91-3.65-1.76 0-3.93.63-4.74.88l-.6-2.18c.84-.35 3.3-1.12 6.14-1.12 4.25 0 6.81 1.37 6.81 5.16v10.63c0 1.44.95 1.75 1.79 1.86l-.18 2.18h-.49c-1.58 0-3.4-.7-3.61-2.42-.91.6-2.88 2.49-6.67 2.49-3.43 0-5.43-1.9-5.43-5.44m20.68-21.3h2.77v26.46h-2.77V37.15zm21.56 14.18c3.86 0 6.6-1.16 6.6-5.05 0-3.79-1.96-5.12-5.75-5.12h-4.42v10.18h3.57zm6.7 8.87l-4.6-6.63c-.6.11-1.58.18-2.32.18h-3.37v9.86h-2.91V38.8h8.11c4.74 0 8.04 2.25 8.04 7.27 0 2.91-1.37 5.55-4.67 6.81l3.86 5.51c1.68 2.32 3.58 2.98 4.88 3.33l-.63 2.28c-1.37-.11-4.25-.78-6.39-3.8m20.17-7.72c0-3.86-1.4-6.46-4.42-6.46-2.88 0-4.95 2.17-5.3 6.46h9.72zm-12.56 1.9c0-7.76 3.75-10.42 8.56-10.42 4.74 0 6.91 3.23 6.91 9.58v1.02h-12.67c.11 6.11 3.12 7.09 7.09 7.09 1.4 0 3.9-.56 4.74-.81l.49 2.28c-.63.25-2.95.91-6.07.91-5.54 0-9.05-2.32-9.05-9.65m18.99-17.23h2.77v9.48c1.33-.95 3.72-2.67 6.67-2.67 5.65 0 5.9 4 5.9 7.3v12.35h-2.63V51.78c0-3.33-.46-5.37-3.97-5.37-2.21 0-5.12 1.86-5.97 2.35v14.85h-2.77V37.15zm30.42 22.39v-4.98l-4.6.18c-2.98.1-4.63 1.54-4.63 3.48 0 2.56 1.37 3.44 3.47 3.44 2.43-.02 5.27-1.84 5.76-2.12m-11.89-1.09c0-4.67 4.21-5.69 7.33-5.76l4.56-.07v-2.56c0-3.05-1.51-3.65-4.91-3.65-1.76 0-3.93.63-4.74.88l-.6-2.18c.84-.35 3.3-1.12 6.14-1.12 4.25 0 6.81 1.37 6.81 5.16v10.63c0 1.44.95 1.75 1.79 1.86l-.18 2.18h-.49c-1.58 0-3.4-.7-3.61-2.42-.91.6-2.88 2.49-6.67 2.49-3.43 0-5.43-1.9-5.43-5.44m20.35 4.53V37.15h2.77v24.01c.88.21 1.93.46 4 .46 4.18 0 6.28-3.54 6.28-7.83 0-3.93-.88-7.48-5.47-7.48-.84 0-1.72.18-2.32.35l-.32-2.07c.63-.28 1.86-.49 3.12-.49 4.98 0 7.79 3.26 7.79 9.12 0 8-4.39 10.7-9.2 10.7-4.16 0-5.77-.7-6.65-.94m10.08 19.41c-.21.08-.47.13-.78.13-.47 0-.74-.06-.81-.19-.04-.04.03-.19.23-.43.19-.25.42-.49.68-.73.26-.24.49-.39.68-.45.08-.03.21-.04.37-.04.22 0 .39.05.52.17.12.11.18.25.18.41 0 .16-.12.37-.36.62-.24.24-.48.42-.71.51m.02 4.39c.29-.18.55-.38.78-.61.23-.23.38-.43.44-.6.07-.17.04-.26-.08-.26-.04-.03-.1-.07-.17-.13s-.13-.09-.19-.09c-.04 0-.09.01-.13.03s-.1.06-.15.12c-.06.06-.1.11-.13.13-.05.06-.12.12-.19.19s-.14.13-.23.17l-.39.23c-.21.11-.39.17-.56.17-.14 0-.37-.03-.68-.1-.47-.07-.7-.45-.7-1.16 0-.18.01-.32.02-.41.05-.44.11-.75.18-.91.06-.17.16-.25.28-.25.07 0 .17.02.29.06.26.18.61.27 1.03.27.32 0 .6-.04.85-.13.52-.26.97-.61 1.34-1.03s.59-.81.64-1.14c0-.45-.17-.85-.52-1.2-.11-.15-.25-.27-.4-.34-.16-.08-.39-.13-.69-.18-.11-.01-.21-.03-.31-.04-.1-.01-.19-.02-.29-.02-.18 0-.38.07-.6.21-.43.17-.86.47-1.31.9-.44.43-.81.93-1.11 1.48-.3.55-.47 1.08-.51 1.59-.03.41-.04.69-.04.83 0 .4.04.74.12 1.01.08.28.21.53.39.75.21.29.47.52.78.68.31.17.64.25.98.25.5-.02.92-.17 1.26-.47m-8.73.5c.26-.06.6-.18 1.02-.38.42-.2.63-.33.63-.38 0-.05.02-.09.06-.1s.09-.02.14-.02c.11 0 .32-.12.62-.36s.58-.5.83-.78.36-.45.33-.52c0-.01.01-.03.02-.06s.04-.04.08-.04c.11-.05.11-.13 0-.22a1.39 1.39 0 0 0-.44-.22c-.18 0-.31.02-.39.05-.08.04-.17.13-.27.28-.1.04-.2.11-.31.22-.11.1-.19.18-.25.22-.54.4-1.03.72-1.47.95-.21.13-.57.19-1.08.19-.22 0-.36-.01-.43-.04-.03-.01-.05-.06-.07-.15-.02-.08-.03-.19-.03-.33 0-.18.03-.42.1-.72.29-1.16.65-2.07 1.08-2.73s.92-1.15 1.47-1.45a.8.8 0 0 1 .33-.08c.21 0 .31.14.31.41 0 .13-.02.27-.06.44-.05.23-.11.45-.17.64-.05.19-.08.31-.08.35.04.11.11.21.21.29.1.08.18.12.25.12.05 0 .08-.03.08-.08 0-.08.08-.13.23-.13.12 0 .25-.1.38-.29.13-.19.23-.42.28-.68.07-.14.1-.3.1-.5 0-.23-.03-.45-.1-.65s-.15-.3-.23-.3l-.1-.1c0-.15-.12-.3-.36-.45s-.49-.25-.73-.31c-.36 0-.68.06-.97.19-.21.08-.43.25-.68.5-.25.25-.55.57-.89.97-.5.61-.91 1.36-1.23 2.26-.32.9-.46 1.65-.4 2.26 0 .57.17 1.01.5 1.32.33.32.75.48 1.26.48.09-.03.24-.05.43-.07m-10.57-.69c.17 0 .47-.17.9-.51.43-.34.95-.82 1.54-1.44.62-.65 1.07-1.1 1.34-1.35.21-.16.34-.25.39-.25.08 0 .12.07.12.21v.77c0 .4 0 .71.01.93.01.22.04.41.09.56.1.22.25.42.47.6.21.18.42.27.61.27.25 0 .5-.09.77-.28.26-.18.48-.42.66-.69.18-.28.28-.53.31-.77-.38.03-.74.11-1.05.25-.08.03-.2.08-.36.15-.16.07-.33.12-.53.17v-1.28c.03-.38.04-.62.04-.7 0-.25-.02-.43-.06-.55-.04-.12-.13-.28-.25-.49-.18-.37-.41-.56-.7-.56-.25 0-.56.14-.94.41-.38.28-.87.72-1.48 1.33l-1.39 1.43.1-.46c.08-.18.15-.35.22-.52.06-.17.11-.28.16-.35.05-.25.16-.55.31-.91s.28-.62.39-.79c.26-.34.42-.61.49-.81.06-.19.09-.4.09-.62-.06-.17-.14-.31-.26-.43s-.23-.19-.32-.19h-.21c-.15.18-.25.32-.29.41l-.68 1.45c-.44.97-.75 1.7-.92 2.21-.17.51-.26.98-.26 1.41 0 .4.01.65.03.76.02.11.08.21.18.31.07.07.15.14.26.21.11.08.18.11.22.11m-5.05-3.78c-.11 0-.25-.01-.41-.03-.17-.02-.24-.05-.21-.09-.07-.04-.01-.19.19-.44.19-.25.42-.51.69-.78.27-.26.47-.41.61-.46.21-.16.41-.25.6-.25.12 0 .23.05.33.15.08.08.13.23.13.43 0 .11-.02.22-.06.33-.24.36-.44.61-.61.75-.17.14-.39.24-.65.28-.27.05-.47.08-.61.11m-1.22 4.2c.34.13.65.19.91.19.43 0 .85-.12 1.28-.35.21-.14.45-.33.71-.57.27-.24.44-.43.51-.57.14-.3.21-.51.21-.62 0-.11-.06-.21-.19-.31-.14-.03-.23-.04-.29-.04-.21 0-.35.06-.41.19-.1.08-.25.23-.48.45-.25.25-.44.43-.58.55-.14.12-.28.2-.43.24-.07.03-.17.04-.29.04a.86.86 0 0 1-.39-.09c-.12-.06-.23-.14-.31-.23a.934.934 0 0 0-.15-.15c-.07-.14-.1-.32-.1-.56 0-.16.01-.3.02-.39.07-.84.19-1.21.35-1.12.1.05.31.08.64.08.5 0 .94-.05 1.32-.15.32-.13.67-.35 1.05-.66.38-.32.6-.58.65-.79.14-.3.21-.6.21-.89 0-.41-.13-.72-.39-.91-.19-.21-.38-.36-.57-.48-.19-.11-.4-.17-.65-.17-.16 0-.36.03-.58.07-.22.05-.38.1-.48.15-.25.14-.56.38-.94.71-.38.34-.66.66-.86.96-.13.26-.25.44-.38.53-.13.09-.22.08-.28-.03 0-.08-.1-.13-.29-.13a.42.42 0 0 0-.19.01.61.61 0 0 1-.17.03c-.04 0-.08.04-.11.13-.03.08-.05.17-.05.27l.02.1c-.01.07.03.16.14.27l.21.21c.1.08.16.16.19.23s.04.17.04.29l-.04.75c-.04.33-.06.62-.06.87 0 .51.09.91.27 1.19.18.29.49.52.93.7m-8.69-1.02c-.1 0-.15-.08-.15-.25 0-.29.13-.7.37-1.24.25-.54.57-1.05.95-1.53.33-.4.64-.71.94-.92.3-.21.6-.35.92-.43.11-.03.22-.04.33-.04.17 0 .32.02.46.06.14.04.21.09.21.15 0 .13-.26.57-.79 1.33-.53.76-.97 1.32-1.35 1.68-.44.4-.8.7-1.08.9-.28.19-.55.29-.81.29m4.41 1.31c.08 0 .13-.04.16-.11.02-.08.03-.27.03-.59 0-.94.03-1.57.08-1.9.22-1.36.45-2.18.7-2.44.08 0 .18-.3.29-.89.06-.28.15-.61.27-.99l.16-.56c.07-.18.29-.71.66-1.59l.31-.7c.18-.4.36-.75.54-1.03.11-.28.2-.52.28-.73.08-.21.11-.38.11-.52 0-.17-.06-.32-.19-.45-.15-.15-.28-.23-.39-.23-.19 0-.43.28-.7.83l-.6 1.41-.54 1.28-.45 1.35c-.07.12-.16.34-.27.64-.07.22-.13.37-.18.45-.06.14-.14.21-.25.21-.1 0-.23-.04-.39-.13-.24-.07-.47-.1-.7-.1-.36 0-.74.08-1.16.23-.44.15-.89.42-1.33.81-.45.39-.79.79-1.03 1.2-.32.48-.55.93-.7 1.34-.15.41-.25.86-.31 1.35-.01.1-.02.25-.02.45 0 .4.07.73.21.98.14.25.35.4.64.43l.23.02c.39 0 .8-.15 1.25-.43.45-.29.98-.78 1.58-1.47l.35-.29c.05-.04.11-.09.18-.15.06-.05.13-.1.21-.14.08-.04.13-.05.15-.02l-.08.95c-.01.1-.02.22-.02.37 0 .18.03.33.09.47.06.13.18.3.34.51.09.11.25.18.49.18m-7.29-.75c.25-.07.37-.19.37-.35 0-.14-.07-.28-.21-.41-.14-.12-.25-.3-.33-.54-.08-.23-.07-.35.04-.35v-.1c-.04 0-.07-.01-.08-.04-.01-.03-.02-.05-.02-.06.05-.03.1-.14.13-.34.04-.2.05-.43.05-.67 0-.37-.03-.7-.1-.97-.03-.07-.04-.18-.04-.33-.05-.17-.22-.37-.5-.62s-.51-.37-.67-.37c-.08 0-.29.08-.62.23-.19.04-.53.22-1.01.54-.48.32-.78.54-.89.66l-1.16.79c0-.07.04-.19.11-.37.08-.18.13-.32.18-.41.45-.77.68-1.34.68-1.7 0-.29-.1-.57-.31-.83-.18-.22-.36-.33-.54-.33-.08 0-.17.04-.27.1-.04 0-.08.02-.12.05-.04.03-.06.08-.06.13v.04c-.03.33-.08.61-.16.83-.08.22-.21.5-.4.83-.32.74-.5 1.22-.54 1.43-.07.1-.14.23-.23.4-.08.17-.14.26-.19.26-.05.11-.13.37-.22.77s-.13.65-.13.76c.01.06.08.15.21.28.12.13.21.23.27.28.03.03.09.08.19.15.1.08.18.11.25.11.03 0 .08-.01.17-.04.07 0 .12-.03.17-.09.04-.06.11-.18.21-.34.1-.17.24-.36.43-.58.48-.43.98-.81 1.51-1.16.52-.35 1.17-.76 1.94-1.24.15-.1.29-.15.41-.15.18 0 .28.16.29.48 0 .08 0 .22.01.4.01.19-.02.31-.07.36-.04.08-.06.23-.06.43 0 .44.06.88.19 1.32.13.28.28.47.45.59.17.11.4.17.67.17m-11.13-3.54a.43.43 0 0 1-.37-.19c-.1-.12-.14-.28-.14-.48-.02-.03-.07-.04-.18-.03-.1.01-.21.03-.32.07l.27-.43c.18-.26.46-.56.83-.9.37-.34.65-.53.83-.57.17-.04.28-.06.35-.06s.15.02.23.06c.1.1.15.26.15.5 0 .44-.17.88-.5 1.33-.35.47-.73.7-1.15.7m-.93 4.56c.28 0 .57-.05.88-.17.31-.11.49-.22.55-.33h.17c.13 0 .25-.08.37-.25h-.02c.03-.03.08-.06.17-.1.08-.04.13-.06.14-.06.11-.01.28-.15.5-.39.22-.25.34-.43.37-.54 0-.15-.08-.28-.25-.37-.16-.1-.31-.12-.43-.06-.03.04-.05.07-.08.08s-.05.02-.08.02c-.04.03-.12.08-.23.15-.11.07-.25.15-.41.23h.02l-.08.04c-.15.11-.31.22-.47.32-.16.1-.34.19-.55.26-.12.06-.32.08-.6.08-.37 0-.61-.08-.7-.23-.14-.22-.21-.51-.21-.87 0-.52.15-1.16.43-1.9l.06-.17.15.17c.14.21.33.36.59.47.26.1.53.15.82.15.33 0 .61-.07.83-.21.43-.25.78-.55 1.04-.9.27-.35.49-.78.65-1.29.07-.28.1-.45.1-.54 0-.1-.02-.27-.06-.52-.1-.29-.21-.5-.33-.64-.13-.14-.3-.26-.54-.35-.33-.15-.63-.23-.89-.23-.35 0-.66.08-.93.23-.48.22-.96.65-1.43 1.28s-.85 1.35-1.15 2.14c-.3.79-.44 1.52-.44 2.18s.19 1.21.58 1.66c.38.43.87.66 1.46.66m-8.13-3.09c-.03-.14.07-.47.29-.99.05-.12.13-.3.23-.54.1-.23.2-.43.32-.59.12-.16.31-.28.59-.38.63-.34 1.18-.52 1.63-.52.36 0 .61.1.75.31.05.05.08.11.08.17 0 .12-.08.3-.24.53-.16.23-.38.51-.67.86-.35.29-.82.57-1.42.84s-1.05.4-1.33.4c-.14 0-.21-.03-.23-.09m-2.58 7.64c.07-.07.19-.33.35-.78.17-.45.49-1.41.97-2.87.22-.84.5-1.77.85-2.79 0-.05.02-.08.07-.08s.16.02.32.04c.08.04.2.06.35.06.18 0 .34-.01.48-.04.39-.05.88-.2 1.48-.45.6-.24.91-.42.94-.53.03-.01.09-.05.19-.1.1-.06.21-.11.35-.17.36-.23.67-.58.93-1.05.26-.46.39-.91.39-1.36 0-.1-.01-.23-.04-.39-.03-.18-.17-.38-.41-.62-.13-.21-.25-.36-.38-.45-.13-.1-.35-.15-.65-.17-.13-.03-.43-.04-.93-.04-.12-.01-.28-.02-.48-.02l-.74.17.14-.41c.17-.4.25-.67.25-.81 0-.08-.02-.17-.06-.25-.14-.22-.3-.33-.5-.33-.07 0-.12.01-.15.02-.08.03-.18.09-.28.18-.1.09-.18.19-.22.3l-.48 1.3-.6 1.49c-.47 1.16-.76 1.94-.87 2.34-.15.57-.31 1.05-.48 1.45-.17.4-.25.63-.27.68-.26.72-.53 1.65-.81 2.8s-.41 1.83-.41 2.04c0 .12.08.28.23.47.16.19.31.31.47.37m-2.2-9.73c-.21.08-.47.13-.79.13-.47 0-.74-.06-.81-.19-.04-.04.03-.19.23-.43.19-.25.42-.49.68-.73.26-.24.49-.39.68-.45.08-.03.21-.04.37-.04.22 0 .39.05.52.17.13.11.19.25.19.41 0 .16-.12.37-.36.62-.23.24-.47.42-.71.51m.02 4.39c.29-.18.55-.38.78-.61.23-.23.38-.43.45-.6.07-.17.04-.26-.08-.26-.04-.03-.1-.07-.17-.13s-.13-.09-.18-.09c-.04 0-.09.01-.14.03-.05.02-.1.06-.15.12-.05.06-.1.11-.12.13l-.19.19c-.07.07-.15.13-.23.17l-.39.23c-.21.11-.39.17-.56.17-.14 0-.37-.03-.68-.1-.47-.07-.7-.45-.7-1.16 0-.18.01-.32.02-.41.06-.44.12-.75.18-.91.06-.17.15-.25.28-.25.07 0 .16.02.29.06.26.18.61.27 1.03.27.32 0 .6-.04.85-.13.53-.26.97-.61 1.35-1.03.37-.43.58-.81.64-1.14 0-.45-.17-.85-.52-1.2-.11-.15-.25-.27-.4-.34-.16-.08-.39-.13-.69-.18-.11-.01-.21-.03-.31-.04-.1-.01-.19-.02-.29-.02-.18 0-.38.07-.6.21-.43.17-.86.47-1.3.9-.44.43-.81.93-1.11 1.48-.3.55-.47 1.08-.51 1.59-.03.41-.04.69-.04.83 0 .4.04.74.12 1.01.08.28.21.53.39.75.21.29.47.52.78.68.31.17.64.25.98.25.47-.02.88-.17 1.22-.47m-10.88-.79c-.1 0-.15-.08-.15-.25 0-.29.13-.7.37-1.24.25-.54.56-1.05.95-1.53.33-.4.65-.71.94-.92.3-.21.6-.35.92-.43.11-.03.22-.04.33-.04.17 0 .32.02.45.06.14.04.21.09.21.15 0 .13-.26.57-.79 1.33-.52.76-.97 1.32-1.34 1.68-.44.4-.8.7-1.09.9-.26.19-.54.29-.8.29m4.41 1.31c.08 0 .13-.04.15-.11.02-.08.03-.27.03-.59 0-.94.03-1.57.08-1.9.22-1.36.45-2.18.7-2.44.08 0 .18-.3.29-.89.05-.28.15-.61.27-.99l.17-.56c.07-.18.29-.71.66-1.59l.31-.7c.18-.4.36-.75.54-1.03.11-.28.2-.52.28-.73.08-.21.11-.38.11-.52 0-.17-.06-.32-.19-.45-.15-.15-.28-.23-.39-.23-.19 0-.43.28-.7.83l-.6 1.41-.54 1.28-.45 1.35c-.07.12-.16.34-.27.64-.07.22-.13.37-.19.45-.05.14-.14.21-.25.21-.1 0-.23-.04-.39-.13-.23-.07-.47-.1-.7-.1-.36 0-.75.08-1.16.23-.44.15-.89.42-1.33.81-.45.39-.79.79-1.02 1.2-.32.48-.55.93-.7 1.34-.15.41-.25.86-.31 1.35-.01.1-.02.25-.02.45 0 .4.07.73.21.98.14.25.35.4.64.43l.23.02c.39 0 .8-.15 1.25-.43.45-.29.98-.78 1.58-1.47l.35-.29c.05-.04.11-.09.18-.15.06-.05.13-.1.21-.14.08-.04.13-.05.15-.02l-.08.95c-.01.1-.02.22-.02.37 0 .18.03.33.09.47.06.13.18.3.34.51.09.11.26.18.49.18m-7.28-.75c.25-.07.37-.19.37-.35 0-.14-.07-.28-.21-.41-.14-.12-.25-.3-.33-.54-.08-.23-.07-.35.04-.35v-.1c-.04 0-.07-.01-.08-.04-.01-.03-.02-.05-.02-.06.05-.03.1-.14.13-.34s.05-.43.05-.67c0-.37-.04-.7-.1-.97-.03-.07-.04-.18-.04-.33-.05-.17-.23-.37-.51-.62s-.51-.37-.67-.37c-.08 0-.29.08-.62.23-.19.04-.53.22-1.01.54-.48.32-.78.54-.89.66l-1.16.79c0-.07.04-.19.11-.37.08-.18.13-.32.18-.41.45-.77.68-1.34.68-1.7 0-.29-.1-.57-.31-.83-.18-.22-.36-.33-.54-.33-.08 0-.17.04-.27.1-.04 0-.08.02-.13.05-.04.03-.06.08-.06.13v.04c-.03.33-.08.61-.15.83-.08.22-.21.5-.4.83-.32.74-.5 1.22-.54 1.43-.07.1-.15.23-.23.4-.08.17-.15.26-.19.26-.06.11-.13.37-.22.77s-.13.65-.13.76c.01.06.08.15.21.28.13.13.21.23.27.28.03.03.09.08.19.15.1.08.18.11.25.11.03 0 .08-.01.17-.04.07 0 .13-.03.17-.09.04-.06.11-.18.21-.34.1-.17.24-.36.43-.58.48-.43.99-.81 1.51-1.16.53-.35 1.17-.76 1.95-1.24.15-.1.29-.15.41-.15.18 0 .28.16.29.48 0 .08 0 .22.01.4.01.19-.02.31-.07.36-.04.08-.06.23-.06.43 0 .44.06.88.18 1.32.13.28.28.47.46.59.16.11.39.17.67.17m-13.49 1.6c.13.05.25.08.39.08.13 0 .19-.05.19-.17.03-.1.11-.17.26-.21.14-.04.43-.07.85-.09.42-.02.95-.04 1.58-.07.55.01.96-.02 1.22-.08.26-.07.39-.19.39-.35 0-.14-.08-.31-.25-.52-.04-.13-.1-.21-.18-.25-.08-.04-.21-.06-.4-.06-.25 0-.78.04-1.59.13l-1.18.1c.14-.53.34-1.17.6-1.95.08-.29.2-.67.35-1.15.15-.48.34-1.12.58-1.93.04-.25.11-.49.21-.72.11-.28.36-1.01.74-2.21l.37-1.1c.11-.3.2-.6.28-.9.08-.3.11-.47.09-.53a.99.99 0 0 0 .11-.17c.03-.05.09-.12.15-.18.07-.11.59-.21 1.57-.29.9-.03 1.46-.07 1.7-.12.3.01.45-.11.45-.37 0-.07-.03-.21-.08-.43a.608.608 0 0 0-.28-.27c-.12-.05-.31-.08-.57-.08-.34 0-.76.03-1.26.08-.16.01-.41.02-.72.02-.37 0-.61-.03-.7-.1-.19-.01-.44.03-.73.13-.13.11-.31.2-.55.28-.24.08-.48.13-.71.16-.48.05-.98.16-1.5.32s-.85.3-1 .42c-.08.06-.13.13-.13.23s.01.17.02.23c.03.08.09.16.18.22.1.06.19.09.27.09.1 0 .16-.03.21-.08.07-.04.41-.09 1.02-.15.61-.06.99-.09 1.13-.07.13.03-.14 1.04-.79 3.04-.08.32-.2.72-.35 1.22-.15.5-.26.83-.33.99-.03.11-.25.83-.68 2.15-.22.62-.37 1.06-.43 1.32-.21.7-.37 1.21-.48 1.53l-.21.41-1.1.02c-1.12.01-1.69.2-1.72.56-.04.15.03.29.23.41.19.13.42.19.68.19l.19-.02c1.1-.07 1.73.04 1.91.29m-13.14-4.2c-.1-.08-.05-.34.13-.77s.38-.73.6-.91c.08-.05.14-.12.16-.21.04-.03.14-.09.28-.2.15-.1.26-.22.34-.34.7-.45 1.3-.68 1.78-.68.1 0 .17.01.21.02.19.01.29.1.29.25 0 .11-.03.23-.08.35-.19.7-.61 1.3-1.26 1.78-.69.55-1.3.83-1.82.83-.22 0-.42-.04-.63-.12m1.43 7.51c.58-.37 1.12-1.65 1.63-3.83.05-.47.11-.78.17-.94.05-.16.1-.27.12-.34l.08-.41c0-.03.05-.22.16-.58l.08-.23c0-.19.05-.39.17-.58.01-.03.03-.06.05-.09.02-.03.03-.07.03-.11 0-.03.03-.12.1-.29.05-.14.1-.3.12-.48.01-.13.05-.23.11-.33s.11-.15.15-.15c.06 0 .13-.01.21-.04.08-.03.15-.04.19-.04.21-.21.31-.52.31-.95 0-.41-.08-.83-.25-1.26a4.29 4.29 0 0 0-.35-.64c-.08-.11-.21-.21-.39-.31a.988.988 0 0 0-.49-.21 2.38 2.38 0 0 1-.32-.04c-.4-.01-.94.16-1.63.54-.69.37-1.25.77-1.68 1.2-.33.37-.61.77-.84 1.19-.23.42-.33.74-.32.96 0 .33.02.55.05.64.04.1.15.27.34.52.18.14.38.25.6.34.22.09.4.13.56.13.07 0 .13-.01.19-.04l.45-.02c.14-.03.44-.16.91-.39.22-.11.39-.19.52-.23.07-.08.12-.13.15-.13.04 0 .06.06.06.17 0 .14-.03.32-.08.54-.13.39-.37 1.38-.73 3l-.06.27c-.14.51-.27.9-.4 1.17-.13.27-.3.49-.51.67-.14.1-.28.15-.44.15-.14 0-.33-.04-.58-.13-.1-.01-.25-.09-.45-.23s-.35-.25-.47-.35c0-.06-.05-.1-.15-.15a.866.866 0 0 0-.32-.06.38.38 0 0 0-.17.04c-.08.04-.05.24.08.59.14.35.28.6.43.73.26.26.56.47.9.62.34.15.67.23 1 .23.28 0 .5-.04.71-.12m-5.44-4.21c.13 0 .22-.03.28-.1a.352.352 0 0 0 .05-.4c-.11-.15-.17-.37-.17-.64 0-.36.09-.81.27-1.37l.13-.54c.01-.07.05-.22.1-.45s.08-.43.08-.58c.07-.21.1-.46.1-.77 0-.21-.02-.38-.06-.53-.04-.15-.09-.22-.15-.22-.01-.01-.03-.04-.06-.07a.15.15 0 0 1-.04-.11c0-.15-.1-.29-.29-.41-.19-.13-.39-.19-.58-.19-.14 0-.23.03-.29.08-.04.04-.09.07-.15.08-.05.01-.09.02-.1.02-.01 0-.04.01-.07.02s-.07.04-.11.08c-.05.06-.13.1-.21.15s-.15.06-.21.06c-.04 0-.22.13-.54.37l-.62.48-.52.31c-.32.19-.5.29-.54.29.01-.04.05-.12.09-.24.05-.12.12-.27.22-.47.15-.41.23-.75.23-1.01 0-.32-.11-.58-.33-.79-.12-.21-.28-.31-.45-.31-.08 0-.15.03-.19.1-.05.05-.1.15-.14.27-.04.13-.06.24-.06.33 0 .17-.02.34-.06.53-.04.19-.09.33-.15.43-.36.78-.66 1.51-.9 2.17-.24.66-.36 1.1-.36 1.3 0 .17.06.32.19.47.13.15.27.24.43.28.08.03.15.04.19.04.15 0 .27-.08.35-.23.28-.28.63-.61 1.06-1 .43-.39.78-.69 1.05-.9.12-.08.26-.19.41-.33.15-.14.26-.23.33-.29.17-.19.47-.41.91-.64.28-.17.44-.25.5-.25.05 0 .08.03.08.1 0 .11-.04.29-.13.54-.15.55-.28 1.11-.38 1.68-.1.57-.16.97-.16 1.19 0 .32.11.64.32.96.23.35.44.51.65.51m-9.89-.76c.1 0 .17-.02.23-.06.05-.04.13-.16.24-.37.1-.21.18-.37.24-.48.39-.78.73-1.57 1.04-2.35.31-.78.47-1.25.47-1.42 0-.25-.07-.48-.2-.68-.13-.21-.27-.31-.43-.31-.07 0-.13.03-.19.08-.05.05-.1.13-.14.21-.04.08-.06.15-.06.21-.05.21-.31.87-.76 2-.46 1.12-.77 1.84-.95 2.16-.04.12-.06.22-.06.29 0 .08.05.15.17.21 0 .03.02.09.05.2.03.1.05.18.05.22.03.01.08.03.15.06.05.02.1.03.15.03m3.04-7.84c.25 0 .42-.01.51-.04.09-.03.15-.08.17-.17.02-.08.03-.24.03-.48 0-.07-.04-.15-.1-.25-.07-.1-.15-.2-.23-.31-.26-.29-.45-.57-.58-.85-.1-.04-.18-.07-.25-.08s-.15-.02-.25-.02c0 .03-.08.16-.25.41-.17.25-.25.41-.25.48 0 .3.14.6.4.88.27.29.54.43.8.43m-10.49 8.13c.21.22.37.33.5.33.11 0 .25-.11.41-.33.08-.11.15-.22.19-.34.04-.12.07-.2.08-.24 0-.1.05-.35.15-.75.1-.41.2-.66.3-.75.25-.43.45-.72.6-.89.38-.43.77-.77 1.15-1.01.38-.25.95-.59 1.73-1.03.17-.08.33-.15.5-.21.17-.05.32-.09.48-.1.29-.01.49-.03.6-.05.11-.02.17-.08.17-.18 0-.01-.01-.04-.02-.07-.01-.03-.04-.05-.08-.05-.03-.01-.07-.05-.13-.1a.336.336 0 0 1-.11-.23.52.52 0 0 0-.3-.28c-.15-.06-.31-.09-.51-.09-.3 0-.57.06-.79.17-.05.03-.16.07-.31.13-.15.05-.28.11-.37.17-.22.11-.62.39-1.21.85-.59.45-.95.81-1.11 1.08-.03.01-.05.03-.08.05a.16.16 0 0 1-.08.03c-.01 0-.02-.01-.02-.04 0-.05.07-.23.2-.54.13-.3.22-.51.28-.62.25-.52.43-.92.53-1.19.1-.27.16-.47.16-.61 0-.15-.04-.25-.13-.31a.636.636 0 0 0-.8-.09c-.28.4-.63 1.15-1.08 2.26s-.68 1.83-.72 2.17l-.1.41c-.17.62-.27 1.17-.31 1.63-.01.08-.02.19-.02.31 0 .14.02.24.06.31 0 .04.08.12.19.2m-4.2-3.77a.43.43 0 0 1-.37-.19c-.1-.12-.15-.28-.15-.48-.01-.03-.07-.04-.18-.03-.1.01-.21.03-.32.07l.27-.43c.18-.26.45-.56.83-.9.37-.34.65-.53.83-.57.17-.04.28-.06.35-.06.07 0 .15.02.23.06.1.1.15.26.15.5 0 .44-.17.88-.5 1.33-.35.47-.73.7-1.14.7M98 87.57c.28 0 .57-.05.88-.17.31-.11.49-.22.55-.33h.17c.13 0 .25-.08.37-.25h-.02c.03-.03.08-.06.16-.1.08-.04.13-.06.15-.06.11-.01.28-.15.5-.39.22-.25.34-.43.37-.54 0-.15-.08-.28-.25-.37-.17-.1-.31-.12-.43-.06-.03.04-.05.07-.08.08a.31.31 0 0 1-.08.02c-.04.03-.12.08-.23.15-.11.07-.25.15-.41.23h.02l-.08.04c-.15.11-.31.22-.47.32-.16.1-.34.19-.55.26-.13.06-.33.08-.6.08-.37 0-.61-.08-.7-.23-.14-.22-.21-.51-.21-.87 0-.52.14-1.16.43-1.9l.06-.17.15.17c.14.21.33.36.59.47.25.1.53.15.82.15.33 0 .6-.07.83-.21.43-.25.78-.55 1.04-.9.27-.35.49-.78.65-1.29.07-.28.1-.45.1-.54 0-.1-.02-.27-.06-.52-.1-.29-.21-.5-.33-.64-.12-.14-.3-.26-.54-.35-.33-.15-.63-.23-.89-.23-.34 0-.65.08-.93.23-.48.22-.96.65-1.43 1.28s-.85 1.35-1.15 2.14c-.3.79-.44 1.52-.44 2.18s.19 1.21.58 1.66c.38.43.86.66 1.46.66m-6.68-.67c.18-.01.36-.1.54-.25.18-.15.4-.39.66-.73.19-.17.39-.39.6-.66.25-.32.44-.58.57-.78.13-.2.23-.37.28-.5.05-.13.1-.22.13-.28.29-.43.55-.92.78-1.48.23-.56.35-.97.35-1.23a.486.486 0 0 0-.18-.36.471.471 0 0 0-.32-.13c-.19 0-.31.11-.35.33-.01.04-.07.11-.17.2-.1.09-.15.17-.15.24l.02.06c-.03.07-.05.13-.07.18-.02.05-.04.09-.05.11-.03.07-.05.16-.08.27a.68.68 0 0 1-.13.27c-.08.07-.15.17-.21.3-.05.13-.08.25-.08.36 0 .11-.2.45-.59 1-.39.56-.74 1-1.04 1.31-.22.18-.4.27-.54.27-.12 0-.19-.06-.19-.17-.08-.29-.12-.78-.12-1.47 0-.76.05-1.32.14-1.68l.31-1.12a.91.91 0 0 0 .02-.21c0-.21-.1-.36-.29-.45-.08-.17-.19-.25-.33-.25-.17 0-.35.12-.56.35-.1.55-.17 1.03-.23 1.45-.14.18-.46.65-.97 1.43-.66 1.13-1.06 1.73-1.2 1.78-.08.05-.14.05-.18-.02-.03-.07-.07-.25-.11-.54l.02-.74c.01-.18.02-.41.02-.7-.04-.48-.06-.86-.06-1.14.01-.03.02-.08.02-.17 0-.05 0-.14-.01-.26s0-.22.01-.3c0-.7-.04-1.08-.12-1.14a.15.15 0 0 1-.15-.06.407.407 0 0 0-.11-.1c-.02-.12-.13-.21-.33-.25-.17.04-.26.1-.29.19-.04.05-.08.22-.12.5-.03.28-.05.53-.05.77 0 .19.01.31.04.35v.09c0 .05.01.1.02.15-.07.21-.1.63-.1 1.26 0 .74.04 1.54.12 2.4-.01.21.01.42.06.63.06.21.12.38.19.51.08.17.2.25.35.25.07 0 .13-.01.17-.02.68-.22 1.56-1.16 2.65-2.81.03.5.08.96.15 1.4.08.43.18.74.3.92.45.48.76.7.96.67M81.43 85c-.7.74-1.28 1.12-1.74 1.12-.18 0-.32-.06-.42-.19a.784.784 0 0 1-.15-.5c0-.28.07-.56.21-.85.33-.75.65-1.37.97-1.87.32-.5.68-.93 1.08-1.27.33-.28.65-.41.95-.41.14 0 .28.03.41.1.11.05.17.29.17.7 0 .33-.03.61-.1.85-.18.51-.37.93-.57 1.26-.22.34-.48.69-.81 1.06m-1.99 2.19c.3-.01.58-.07.82-.15.24-.09.51-.24.8-.45.45-.28.82-.53 1.1-.78.28-.24.57-.59.89-1.04.73-1.05 1.1-2.02 1.1-2.92 0-.54-.07-.93-.22-1.19-.14-.25-.4-.46-.78-.63-.13-.13-.23-.21-.3-.26a.462.462 0 0 0-.26-.07c-.1 0-.28.03-.56.1-.32.07-.61.17-.87.31-.26.14-.56.35-.89.64-.23.19-.5.48-.8.85-.3.37-.52.68-.67.93-.21.32-.38.67-.52 1.04-.14.38-.19.63-.17.73.03.15 0 .23-.08.23-.02.03-.04.05-.06.07-.03.02-.04.04-.04.06 0 .02.03.06.08.11 0 .03 0 .09.01.18.01.1-.01.2-.05.29a.91.91 0 0 0-.02.21c0 .4.23.84.68 1.32.18.15.32.26.41.31.1.09.24.11.4.11m-6.7-1.96c-.18 0-.27-.17-.27-.52 0-.28.07-.61.22-.99s.34-.74.59-1.08c.22-.29.49-.53.82-.73.33-.2.63-.35.91-.45.28-.1.46-.15.55-.13.08.08.12.2.12.35 0 .11-.02.21-.06.29-.05.17-.15.42-.29.77-.1.28-.28.57-.54.89-.14.17-.48.46-1.03.88s-.9.65-1.02.72m-2.47 5.89c.07-.04.17-.25.29-.63.12-.38.2-.74.23-1.08.04-.21.18-.64.41-1.31.05-.14.19-.5.39-1.08.07-.1.11-.17.13-.23.02-.05.03-.09.03-.1.05-.04.09-.11.11-.2.02-.09.03-.15.03-.2.03-.15.13-.44.31-.87.12.36.26.59.41.7.05.03.11.04.17.04.11 0 .24-.03.4-.08.16-.05.31-.13.47-.23.52-.29.98-.6 1.38-.93.4-.33.75-.72 1.03-1.18.05-.08.16-.25.3-.49.15-.24.23-.4.26-.49.19-.47.29-.85.29-1.14 0-.33-.14-.68-.43-1.06-.14-.12-.31-.22-.52-.29-.21-.07-.42-.1-.64-.1-.19 0-.37.03-.52.08-.04.04-.1.08-.17.11s-.12.06-.14.07c-.07.08-.24.2-.51.34-.27.15-.45.24-.55.28-.04 0-.07-.01-.07-.02-.01-.01 0-.04.03-.08 0-.11-.08-.31-.25-.59-.16-.28-.27-.4-.31-.34-.04 0-.07-.01-.08-.03a.2.2 0 0 1-.02-.09c.01-.03-.04-.06-.18-.1-.13-.04-.27-.06-.43-.06a.96.96 0 0 0-.33.06c-.1.04-.17.1-.23.19a.43.43 0 0 0-.08.27c0 .17.08.28.23.33.21.07.31.32.31.74 0 .36-.07.72-.21 1.08-.26.65-.44 1.19-.54 1.61-.03.07-.06.2-.1.39-.07.03-.11.12-.13.28-.02.16-.04.26-.05.3-.11.16-.21.4-.31.7-.08.11-.17.32-.27.62 0 .13-.02.27-.06.45-.04.17-.1.32-.17.44-.08.14-.19.41-.33.81-.14.4-.22.68-.25.83-.01.14-.05.31-.11.51s-.1.33-.11.38c-.04.15-.06.29-.06.41 0 .28.07.51.21.71.14.2.3.3.5.3.09.04.16.01.24-.03m-2.33-4.49c.21.08.43.13.68.13.26 0 .48-.05.66-.17.18-.12.27-.25.27-.37 0-.18-.13-.29-.37-.33-.4-.07-.63-.15-.7-.23-.04-.04-.07-.22-.09-.54-.02-.32-.04-.53-.05-.64 0-.23-.01-.4-.02-.5v-.52c0-.22-.01-.4-.04-.53a.738.738 0 0 0-.23-.38c-.21-.3-.45-.45-.75-.45-.4 0-.94.27-1.63.81-.21.18-.43.37-.68.58s-.42.35-.52.43c.04-.12.1-.32.2-.6.09-.28.16-.51.22-.7.03-.11.04-.2.04-.27 0-.23-.06-.41-.19-.54-.06-.05-.14-.14-.25-.26-.11-.12-.21-.2-.3-.25-.09-.05-.23-.07-.4-.07-.3.1-.74.32-1.31.68-.57.36-1.06.73-1.48 1.12-.17.13-.31.25-.43.37-.11.1-.21.18-.29.24-.08.06-.13.07-.14.03 0-.05.08-.33.26-.82s.31-.85.43-1.07l.23-.56c.11-.25.17-.49.17-.73 0-.25-.07-.45-.21-.6a.656.656 0 0 0-.5-.23.63.63 0 0 0-.41.15c-.12.1-.18.25-.18.43 0 .19-.07.48-.21.87-.24.54-.4.93-.5 1.18-.1.25-.16.46-.19.64l-.1.41c-.01.11-.08.4-.21.87-.17.69-.25 1.15-.25 1.36 0 .17.03.3.08.39.11.41.38.62.81.62.03 0 .14-.12.33-.37.37-.51.66-.85.87-1.01l.5-.48c.48-.47.79-.79.91-.97.11-.07.24-.18.39-.32.15-.15.24-.22.27-.22.05-.11.19-.22.41-.34.22-.12.39-.18.52-.2.07-.01.08.07.02.26-.05.19-.23.63-.54 1.33l-.48 1.37-.04.19c0 .11.05.21.15.29l.23.19c.11.1.23.15.35.15.08 0 .17-.03.27-.09s.2-.16.32-.29c.12-.13.21-.23.28-.3.59-.65 1.18-1.21 1.77-1.68.58-.47.97-.7 1.15-.7.05 0 .09.03.11.1.02.07.03.19.03.35l-.02.95c0 .61.09 1.04.26 1.31.14.3.32.47.52.53M50.37 88c.77-.01 1.58-.11 2.41-.28.83-.17 1.59-.44 2.26-.8.55-.32.99-.66 1.31-1.03.33-.36.49-.68.49-.94a.68.68 0 0 0-.04-.21c-.01-.1-.23-.05-.63.13-.41.18-.73.37-.96.56-.21.23-.33.35-.37.35-.01 0-.02-.01-.02-.02l.02-.04a.801.801 0 0 0-.37.1c-.11.07-.42.18-.92.33-.5.15-1.11.29-1.81.41-.28.11-.55.17-.83.17-.19 0-.36-.01-.51-.02-.15-.01-.27-.03-.36-.04-.44-.13-.75-.28-.94-.46-.19-.18-.34-.44-.46-.78-.04-.11-.06-.26-.06-.46 0-.37.06-.83.19-1.38.13-.54.27-1 .45-1.38.17-.37.33-.52.47-.45-.01.23.19.35.62.35.5 0 1.19-.13 2.09-.39l.66-.19c.76-.21 1.41-.39 1.94-.55.54-.16.9-.29 1.1-.4.19-.11.29-.23.29-.35 0-.07-.02-.15-.06-.23-.19-.33-.41-.5-.66-.5-.11 0-.23.04-.35.13-.29.04-1.53.35-3.72.91-.1.03-.26.06-.48.08-.22.03-.39.08-.52.14-.08-.01-.18-.03-.3-.06l-.24-.06c-.04-.05.01-.2.17-.45.15-.24.43-.63.83-1.17.08-.1.15-.19.21-.27.05-.08.1-.15.15-.21.15-.3.3-.6.45-.88.15-.28.28-.46.37-.53.3-.47.58-.79.82-.95.24-.16.63-.3 1.17-.41.84-.18 1.64-.31 2.4-.39.11-.01.39-.05.85-.1.45-.05.78-.13.96-.22.19-.09.28-.21.28-.36 0-.08-.02-.17-.06-.27-.1-.22-.21-.37-.34-.45a.4.4 0 0 0-.36-.05c-.07.01-.22.03-.45.04-.23.01-.46.01-.68 0-.41.05-.73.11-.96.15-.23.05-.37.11-.43.18-.11.01-.29.05-.54.1-.55.14-.83.17-.83.08a.21.21 0 0 0-.14-.15.778.778 0 0 0-.28-.05c-.36 0-.73.15-1.1.43-.47.26-.86.53-1.17.8-.31.27-.44.44-.38.51.04.05.06.13.06.23 0 .18-.12.39-.35.64-.4.76-.6 1.19-.6 1.28.01.01.01.03-.01.05l-.11.11c-1.03 1.61-1.7 2.79-2.01 3.52-.16.34-.32.79-.45 1.33-.14.54-.21 1.02-.21 1.42 0 .12.01.27.04.43.08.43.19.78.32 1.04.13.27.32.53.57.78l.41.29c.33.26.63.46.89.6l.39.21s.13.04.43.05"></path></svg>