<svg width="442" height="93" viewBox="0 0 442 93" fill="none" xmlns="http://www.w3.org/2000/svg">
<path class="brushstroke-path" fill-rule="evenodd" clip-rule="evenodd" d="M221.439 0.0618713C221.435 0.155302 221.02 0.332534 220.516 0.455701C219.381 0.732954 219.058 0.935529 219.058 1.37075C219.058 1.66963 219.162 1.69937 219.926 1.61911C220.444 1.56471 220.9 1.60678 221.059 1.72353C221.225 1.84602 222.332 1.93185 224.022 1.9528C225.506 1.97138 233.567 2.06853 241.935 2.16889C256.601 2.3446 258.744 2.38768 264.165 2.61476C269.465 2.83693 280.004 2.86683 281.271 2.66324C282.53 2.46101 286.965 2.65108 289.827 3.03004C290.622 3.1353 291.082 3.12635 291.274 3.00183C291.428 2.90147 291.653 2.8665 291.772 2.92428C292.084 3.07532 295.888 3.23667 298.121 3.19359C299.61 3.16487 300.112 3.09154 300.408 2.85957C300.771 2.57573 300.727 2.55275 299.447 2.35355C298.672 2.23292 297.684 2.19474 297.104 2.26266C296.425 2.3424 295.998 2.313 295.78 2.17125C295.598 2.05265 295.459 2.03575 295.459 2.13222C295.459 2.41573 294.313 2.50375 294.064 2.23951C293.609 1.75613 282.493 1.12611 270.639 0.911706C268.799 0.878422 266.614 0.77384 265.783 0.679227C262.89 0.349768 243.471 -0.0514964 233.182 0.00544089C224.515 0.0535926 223.175 0.095324 222.722 0.330676C222.236 0.583599 222.18 0.578361 221.825 0.246199C221.617 0.0512272 221.443 -0.0317288 221.439 0.0618713ZM215.207 0.494054C214.929 0.581403 214.614 0.609956 214.506 0.557918C214.398 0.505712 214.31 0.543726 214.31 0.642057C214.31 0.740388 214.45 0.820978 214.621 0.820978C215.041 0.820978 215.241 1.10617 214.928 1.25772C214.77 1.33409 214.733 1.30689 214.829 1.18507C214.914 1.07779 214.88 0.989932 214.754 0.989932C214.629 0.989932 214.526 1.10398 214.526 1.24336C214.526 1.38275 214.611 1.49679 214.715 1.49679C215.047 1.49679 215.432 1.01223 215.267 0.802225C215.171 0.681423 215.198 0.643915 215.333 0.709469C215.458 0.769786 215.615 0.705414 215.683 0.566535C215.751 0.427655 215.786 0.319018 215.76 0.324763C215.734 0.330676 215.485 0.406874 215.207 0.494054ZM216.223 0.591371C216.343 0.76421 216.498 1.11445 216.567 1.37008C216.684 1.80496 217.116 2.03744 217.116 1.66574C217.116 1.57282 217.025 1.49679 216.913 1.49679C216.802 1.49679 216.681 1.25553 216.644 0.960703C216.607 0.665879 216.447 0.391499 216.29 0.35095C216.072 0.294858 216.056 0.352133 216.223 0.591371ZM216.954 0.52531C217.003 0.64155 217.227 0.76421 217.45 0.79817C217.802 0.851559 217.818 0.823175 217.568 0.586978C217.226 0.264108 216.826 0.223897 216.954 0.52531ZM212.989 0.560283C212.934 0.602691 212.068 0.649491 211.064 0.66419C208.961 0.695108 208.483 0.765393 208.483 1.04349C208.483 1.3346 209.62 1.29658 209.956 0.994324C210.113 0.852573 210.18 0.831622 210.105 0.947693C210.024 1.07204 210.106 1.15888 210.305 1.15888C210.49 1.15888 210.641 1.27293 210.641 1.41231C210.641 1.67808 210.385 1.74718 210.133 1.54967C209.916 1.37971 209.13 1.36045 209.13 1.52501C209.13 1.60239 209.218 1.66574 209.326 1.66574C209.434 1.66574 209.467 1.83064 209.399 2.0322C209.3 2.32838 209.349 2.37687 209.653 2.28563C209.86 2.22346 210.451 2.1726 210.967 2.1726C211.483 2.1726 212.035 2.07073 212.194 1.94638C212.353 1.82186 212.627 1.67588 212.803 1.62182C213.023 1.55424 212.978 1.51926 212.66 1.51014C212.406 1.50287 212.146 1.60357 212.082 1.73383C211.947 2.00855 209.515 2.19609 209.632 1.92289C209.671 1.83199 209.938 1.75597 210.226 1.75394C210.662 1.7509 210.742 1.6725 210.708 1.2856C210.669 0.834664 210.701 0.820978 211.787 0.818444C212.403 0.816923 213.053 0.742077 213.231 0.652025C213.409 0.561973 213.45 0.487127 213.321 0.485606C213.192 0.484255 213.043 0.517876 212.989 0.560283ZM218.087 0.820978C218.16 0.913903 218.36 0.989932 218.531 0.989932C218.702 0.989932 218.842 0.913903 218.842 0.820978C218.842 0.728054 218.642 0.652025 218.398 0.652025C218.154 0.652025 218.013 0.728054 218.087 0.820978ZM205.637 0.936373C205.792 0.985201 205.979 0.979119 206.05 0.923026C206.122 0.866934 205.995 0.827061 205.767 0.834326C205.516 0.842435 205.465 0.882477 205.637 0.936373ZM206.756 1.26701C206.756 1.41941 206.586 1.64125 206.379 1.76002C205.906 2.03085 206.213 2.31047 206.713 2.0638C207.078 1.88353 207.257 0.989932 206.928 0.989932C206.834 0.989932 206.756 1.11462 206.756 1.26701ZM212.583 1.15365C212.583 1.24353 212.738 1.2709 212.927 1.21413C213.141 1.14993 213.469 1.27918 213.799 1.55728C214.253 1.94063 214.486 1.99926 215.452 1.97239L216.576 1.94114L215.471 1.87981C214.641 1.83385 214.242 1.71542 213.869 1.40421C213.376 0.99348 212.583 0.838887 212.583 1.15365ZM215.646 1.17156C215.689 1.27141 215.816 1.35318 215.929 1.35318C216.042 1.35318 216.168 1.27141 216.211 1.17156C216.253 1.0717 216.127 0.989932 215.929 0.989932C215.731 0.989932 215.604 1.0717 215.646 1.17156ZM207.73 1.32446C207.642 1.43546 207.668 1.60222 207.787 1.69514C208.068 1.91529 208.291 1.63212 208.064 1.34389C207.931 1.17595 207.851 1.17122 207.73 1.32446ZM190.57 1.69109C189.323 1.77168 185.633 1.99487 182.369 2.18697C179.104 2.37907 175.268 2.64449 173.844 2.77695C172.419 2.90941 170.005 3.13344 168.479 3.27469C166.953 3.4161 165.542 3.59958 165.344 3.68254C165.13 3.77209 164.839 3.76989 164.627 3.67696C164.43 3.5908 163.753 3.56106 163.121 3.61073C162.49 3.66041 161.609 3.69741 161.164 3.69302C160.581 3.68727 160.355 3.75654 160.355 3.94036C160.355 4.10594 159.911 4.29821 159.092 4.4871C158.073 4.72228 157.849 4.83666 157.93 5.08063C157.996 5.27695 157.911 5.38272 157.689 5.38272C157.461 5.38272 157.387 5.28422 157.468 5.08705C157.571 4.8375 157.553 4.83092 157.357 5.04481C157.063 5.36464 157.045 5.94466 157.333 5.8051C157.452 5.74766 157.549 5.77925 157.549 5.87538C157.549 5.97946 157.287 6.00903 156.902 5.94871C156.208 5.84024 156.046 6.05059 156.563 6.38647C156.89 6.59918 158.557 6.43563 159.775 6.0712C160.109 5.97135 160.668 5.88958 161.016 5.88958C161.448 5.88958 161.65 5.8051 161.65 5.62381C161.65 5.40367 161.747 5.41803 162.218 5.70829C162.811 6.07323 163.482 6.16548 163.684 5.90968C163.749 5.82774 164.532 5.70728 165.424 5.64189C166.316 5.57634 167.046 5.47226 167.047 5.41059C167.048 5.34876 167.995 5.29182 169.151 5.28405C170.755 5.27307 171.433 5.19552 172.009 4.95695C172.733 4.6574 174.908 4.47561 176.703 4.56481C177.637 4.61111 181.208 4.30767 181.443 4.16203C181.784 3.95118 184.109 3.97449 186.685 4.21457C187.813 4.31966 188.978 4.3935 189.275 4.37863C189.572 4.36376 192.339 4.35717 195.426 4.3641C200.952 4.37643 202.224 4.31358 202.224 4.02906C202.224 3.79625 201.282 3.62374 201.19 3.83967C201.146 3.94492 201.023 4.03109 200.918 4.03109C200.813 4.03109 200.783 3.91705 200.851 3.77766C200.953 3.56968 200.73 3.5217 199.603 3.51004L198.231 3.49585L199.458 3.28955C200.758 3.07059 201.732 2.43904 201.34 2.06887C200.771 1.53092 195.763 1.35538 190.57 1.69109ZM206.864 1.8347C206.791 1.92762 206.615 2.00247 206.474 2.00112C206.319 1.99943 206.346 1.93303 206.54 1.8347C206.955 1.62486 207.03 1.62486 206.864 1.8347ZM301.576 2.6673C301.201 2.84639 300.837 2.94776 300.766 2.89251C300.696 2.83727 300.638 2.87494 300.638 2.97615C300.638 3.32284 302.044 3.51342 304.999 3.56715C306.625 3.59671 308.025 3.67511 308.11 3.7415C308.296 3.88765 310.268 3.89745 310.944 3.7557C311.389 3.66227 311.653 3.18632 311.259 3.18632C311.166 3.18632 309.938 3.07448 308.531 2.93779C307.123 2.80128 305.895 2.72643 305.802 2.77171C305.709 2.81699 305.571 2.77661 305.496 2.68217C305.306 2.44124 304.307 2.46726 304.307 2.71326C304.307 2.86362 304.244 2.86683 304.064 2.72559C303.898 2.596 303.649 2.58637 303.282 2.69551C302.873 2.81733 302.684 2.79385 302.5 2.5987C302.285 2.37112 302.179 2.3789 301.576 2.6673ZM208.475 3.47084L210.518 3.53741L209.878 3.86754C209.526 4.04917 209.354 4.19835 209.495 4.19886C209.637 4.19954 209.808 4.12908 209.877 4.04224C209.945 3.9554 210.364 3.91485 210.807 3.95202C211.582 4.01707 211.588 4.01369 210.965 3.86248C210.386 3.72208 210.417 3.71228 211.261 3.7704C211.903 3.81483 212.134 3.78036 211.983 3.66277C211.862 3.56765 210.563 3.47067 209.098 3.44719C207.632 3.42353 207.352 3.43435 208.475 3.47084ZM312.437 3.46797C312.083 3.74455 312.361 3.87768 313.193 3.82953C314.385 3.76077 314.584 3.35528 313.426 3.35528C312.961 3.35528 312.516 3.40596 312.437 3.46797ZM202.872 3.68727C202.872 3.95388 203.656 4.20173 204.422 4.17707C204.986 4.15882 205.023 4.1399 204.598 4.08752C203.07 3.89914 202.982 3.78999 204.274 3.68558L205.569 3.581L204.22 3.55261C203.473 3.5369 202.872 3.59688 202.872 3.68727ZM212.907 3.69318C212.981 3.78611 213.138 3.86214 213.256 3.86214C213.375 3.86214 213.412 3.78611 213.339 3.69318C213.265 3.60026 213.108 3.52423 212.99 3.52423C212.871 3.52423 212.834 3.60026 212.907 3.69318ZM313.752 3.6403C313.546 3.68254 313.157 3.68406 312.889 3.64368C312.62 3.6033 312.789 3.56867 313.264 3.56681C313.739 3.56495 313.958 3.59806 313.752 3.6403ZM205.785 3.87464L205.138 4.01622L205.839 3.96841C206.225 3.94222 206.54 3.9853 206.54 4.06437C206.54 4.14345 206.905 4.19751 207.35 4.1845C207.795 4.17149 208.402 4.21187 208.699 4.27421C209.095 4.35734 209.06 4.32254 208.569 4.14345C208.201 4.0093 207.642 3.938 207.328 3.98497C206.986 4.03616 206.756 3.99477 206.756 3.88191C206.756 3.67257 206.711 3.67223 205.785 3.87464ZM165.75 4.03109C165.75 4.12401 165.605 4.20004 165.427 4.20004C165.249 4.20004 165.103 4.12401 165.103 4.03109C165.103 3.93817 165.249 3.86214 165.427 3.86214C165.605 3.86214 165.75 3.93817 165.75 4.03109ZM222.64 4.00473C222.565 4.09935 222.609 4.22758 222.738 4.28976C223.07 4.45026 223.284 4.23046 223.007 4.01352C222.852 3.89221 222.731 3.88934 222.64 4.00473ZM233.248 4.1475C233.04 4.19008 232.871 4.28824 232.871 4.36562C232.871 4.53947 233.697 4.38387 233.858 4.1796C233.98 4.0245 233.877 4.01909 233.248 4.1475ZM234.489 4.369C234.563 4.46192 234.817 4.53795 235.054 4.53795C235.292 4.53795 235.426 4.46192 235.353 4.369C235.279 4.27607 235.025 4.20004 234.787 4.20004C234.55 4.20004 234.416 4.27607 234.489 4.369ZM237.619 4.57478C237.619 4.64743 237.708 4.7069 237.817 4.7069C237.926 4.7069 238.169 4.75303 238.356 4.80946C238.58 4.87653 238.698 4.81875 238.698 4.64236C238.698 4.4582 238.527 4.38387 238.158 4.40769C237.861 4.42695 237.619 4.50213 237.619 4.57478ZM153.988 5.21376C153.915 5.30669 154 5.38272 154.178 5.38272C154.357 5.38272 154.562 5.30669 154.636 5.21376C154.709 5.12084 154.623 5.04481 154.445 5.04481C154.267 5.04481 154.061 5.12084 153.988 5.21376ZM153.017 5.46719C153.017 5.62212 153.121 5.72147 153.249 5.68818C153.376 5.6549 153.481 5.55556 153.481 5.46719C153.481 5.379 153.376 5.27949 153.249 5.2462C153.121 5.21292 153.017 5.31226 153.017 5.46719ZM255.29 5.67839C255.276 5.74816 255.271 5.85072 255.28 5.90647C255.313 6.1376 249.634 6.21599 243.985 6.06242C236.04 5.84632 214.51 6.10618 211.289 6.45709C210.042 6.59276 207.274 6.75276 205.138 6.81257C201.562 6.91276 201.155 6.89384 200.02 6.57519C198.8 6.23255 198.713 6.23154 191.711 6.48159C187.819 6.62047 183.275 6.84703 181.613 6.98473C179.951 7.1226 175.872 7.39292 172.549 7.58536C169.225 7.7778 163.234 8.23532 159.236 8.60195C151.736 9.28976 150.318 9.37103 150.123 9.12469C150.061 9.04562 150.401 8.88917 150.878 8.77716C151.765 8.56918 152.585 8.06586 152.585 7.72999C152.585 7.62709 152.429 7.58992 152.238 7.64737C151.956 7.73201 151.916 7.67102 152.026 7.32754C152.149 6.94469 152.098 6.9033 151.51 6.9033C151.152 6.9033 150.859 6.82389 150.859 6.72674C150.859 6.62959 150.62 6.36349 150.329 6.1354C149.526 5.50639 149.526 5.50639 136.722 7.24171C135.298 7.43482 132.287 7.81936 130.032 8.09611C127.777 8.37302 124.717 8.78425 123.234 9.00981C101.22 12.358 102.621 12.1635 101.421 12.0388C100.156 11.9075 95.4176 12.2824 88.3786 13.0708C85.2132 13.4254 78.088 13.8518 75.9708 13.8135C74.9608 13.7952 73.5032 13.8682 72.7316 13.9759C71.96 14.0835 67.444 14.4746 62.6959 14.8451C51.8268 15.6931 43.7002 16.5938 43.959 16.9216C44.0389 17.0228 43.9858 17.0402 43.8287 16.9643C43.4851 16.798 41.1808 17.0209 41.3271 17.2061C41.3882 17.2836 41.2535 17.3091 41.0277 17.2628C40.4157 17.1375 37.3849 17.6879 36.1323 18.1519C35.5291 18.3754 34.734 18.6053 34.3656 18.6631C33.7611 18.7577 33.2858 19.1631 33.5433 19.3644C33.6456 19.4445 42.726 18.714 45.3224 18.4168C46.0939 18.3284 47.405 18.2081 48.2359 18.1495C49.0668 18.0909 51.6891 17.8981 54.0631 17.721C56.4371 17.544 59.5935 17.3607 61.0773 17.3139L63.775 17.2285L62.1564 17.4705C61.2661 17.6036 59.4694 17.828 58.1637 17.9691C56.858 18.1103 55.2555 18.3122 54.6026 18.4178C53.9498 18.5236 52.5914 18.6035 51.584 18.5957C50.2554 18.5852 49.6558 18.6494 49.4018 18.8294C49.1322 19.0205 48.9173 19.0375 48.4679 18.9037C47.6344 18.6557 46.553 18.6891 46.065 18.9781C45.7603 19.1585 45.7313 19.2276 45.959 19.2315C46.2025 19.2357 46.2143 19.282 46.013 19.4396C45.6569 19.7184 45.6886 19.9127 46.0905 19.9127C46.2802 19.9127 46.363 19.8316 46.2802 19.7269C46.1736 19.5919 46.2545 19.5919 46.5771 19.7269C47.1063 19.9487 48.128 19.9737 48.128 19.765C48.128 19.6838 48.9943 19.6559 50.0534 19.7032C51.1122 19.7503 53.2089 19.6985 54.7125 19.5878C57.5231 19.381 66.1616 19.5067 65.5778 19.7461C65.4172 19.8118 64.3631 20.0365 63.2355 20.2452C60.1013 20.8252 58.3903 21.8531 60.1087 22.1235C60.8746 22.2441 60.6055 22.3468 58.9191 22.5783C58.2662 22.668 57.1597 22.706 56.4604 22.6629C54.7671 22.5587 54.1488 22.8079 54.3165 23.5268C54.384 23.8157 54.6944 24.2487 55.0065 24.489C55.5672 24.9206 55.6051 24.925 58.1902 24.8471C61.049 24.7612 64.0722 24.9364 63.3434 25.146C63.106 25.2143 62.2533 25.3216 61.4483 25.3844C60.4218 25.4645 59.8579 25.598 59.5598 25.8313C59.2803 26.0501 58.8427 26.164 58.2817 26.164C56.9952 26.164 56.3292 26.4613 56.3292 27.0359C56.3292 27.2997 56.4263 27.5156 56.545 27.5156C56.8908 27.5156 56.7937 27.8542 56.4153 27.9679C56.2254 28.025 55.9899 27.9704 55.8922 27.8466C55.7569 27.6753 55.5611 27.7499 55.0718 28.1598C54.7185 28.456 54.3132 28.6983 54.171 28.6983C53.6377 28.6983 52.3998 29.2702 52.2509 29.5854C52.1222 29.8576 51.8276 29.9262 50.5001 29.9928C49.6222 30.0367 48.8139 30.0866 48.7038 30.1036C48.3046 30.1651 48.4103 29.3803 48.815 29.2798C49.034 29.2254 49.1577 29.1102 49.0897 29.024C48.9033 28.788 47.6608 28.8468 47.0489 29.1207C46.7522 29.2535 46.3125 29.3648 46.0719 29.3682C45.3148 29.3785 44.2433 30.2923 44.2433 30.9276C44.2433 31.4429 44.341 31.5227 45.4993 31.951C46.9689 32.494 47.105 32.505 47.8218 32.1373C48.2994 31.8923 48.469 31.8866 49.2553 32.0898C49.9202 32.2615 50.1682 32.2699 50.2308 32.123C50.2942 31.9741 50.4472 31.9731 50.8545 32.1184C51.2889 32.2733 51.5285 32.2549 52.0812 32.0245C53.0921 31.6027 54.9001 31.2819 56.9767 31.1559C57.9856 31.0945 60.6564 30.9006 62.9117 30.7247C68.0345 30.3255 77.9113 30.0894 77.9113 30.3663C77.9113 30.4711 77.7617 30.5568 77.5791 30.5568C76.6742 30.5568 72.9632 30.9349 72.2999 31.0947C71.8845 31.1947 69.7284 31.3238 67.5087 31.3813C63.5424 31.4841 62.5837 31.635 63.1384 32.0687C63.4979 32.35 63.2411 33.9216 62.8058 34.1039C62.3851 34.2801 58.1076 34.6872 54.8072 34.8651C53.0798 34.958 52.6162 34.9276 51.9446 34.6769C51.1864 34.3939 51.088 34.3932 50.1211 34.6638C49.5591 34.8211 48.3223 35.0257 47.3727 35.1183C44.9779 35.3517 42.6255 35.7769 42.1556 36.0609C41.8517 36.2449 41.954 36.2388 42.6013 36.0347C43.0644 35.8886 43.6778 35.8161 43.9683 35.8732C44.3065 35.9398 44.4455 35.9138 44.3566 35.8011C44.2802 35.7044 44.3207 35.6254 44.4463 35.6254C44.5719 35.6254 44.6749 35.7379 44.6749 35.8756C44.6749 36.1336 44.2556 36.25 42.9483 36.3552C42.4932 36.3919 42.7077 36.4277 43.4879 36.4455C45.4134 36.489 45.754 36.595 45.754 37.1498C45.754 37.9523 46.998 38.1585 51.8893 38.1662C55.6263 38.1723 55.941 38.1948 55.3041 38.4116C54.5262 38.6761 54.4442 38.8562 54.9283 39.2352C55.3043 39.5295 55.3036 39.5297 50.5724 39.9244C49.0086 40.0548 47.5091 40.2537 47.2401 40.3664L46.7511 40.5713L47.2544 40.8903C47.5311 41.0657 47.7195 41.2376 47.6731 41.2724C47.6265 41.3073 47.0543 41.2645 46.4015 41.1775C44.2966 40.8969 40.6451 40.7771 39.8729 40.9634C39.3694 41.0851 39.3899 41.3698 39.9022 41.3698C40.126 41.3698 40.5872 41.4833 40.9274 41.6222C41.2673 41.7609 42.0555 41.8749 42.6786 41.8756C43.3016 41.8761 43.8116 41.9527 43.8116 42.0456C43.8116 42.1385 43.6569 42.2145 43.4678 42.2145C43.2787 42.2145 42.4291 42.4051 41.5794 42.6379C40.7299 42.8709 38.9179 43.2451 37.5528 43.4695C36.1877 43.6939 34.2939 44.0291 33.3443 44.2141C32.3947 44.3993 30.6465 44.678 29.4595 44.8335C26.7382 45.1903 25.8141 45.4371 25.7166 45.8338C25.6184 46.2331 24.7186 46.8459 23.6922 47.2123C23.2504 47.3701 22.9253 47.5457 22.97 47.6025C23.0149 47.6591 22.8423 47.7177 22.5865 47.7324C21.8227 47.7766 20.0713 48.4636 20.0713 48.7189C20.0713 48.8493 19.4159 49.2378 18.6145 49.5821C15.7484 50.8136 15.1836 51.3407 16.3484 51.6967C16.7889 51.8313 17.6675 51.8084 19.7545 51.608C23.1789 51.2792 23.5245 51.2757 23.5245 51.568C23.5245 51.7942 24.8051 51.9892 26.546 52.0275L27.3013 52.0442L26.546 52.2123C25.769 52.3853 25.0352 52.7969 25.0352 53.0598C25.0352 53.1416 25.4615 53.3516 25.9827 53.5265C26.5037 53.7013 26.9875 53.9172 27.0579 54.0061C27.128 54.0952 26.7259 54.2638 26.1644 54.3807C25.6026 54.4976 24.7546 54.7637 24.2798 54.9719C23.805 55.18 22.4454 55.5404 21.2583 55.7727C17.6041 56.4877 16.5245 57.0819 18.1171 57.5016C18.5258 57.6094 18.7585 57.7469 18.6337 57.8072C18.3985 57.9211 15.2395 58.3959 13.6675 58.5537C12.9609 58.6245 12.791 58.7032 12.8785 58.9191C12.9665 59.1367 12.9458 59.1458 12.7792 58.963C12.5359 58.6963 10.5616 58.8377 4.68849 59.542C1.07975 59.9749 0 60.2633 0 60.7942C0 61.2708 0.745445 61.6006 2.52143 61.9099C3.39011 62.0611 4.10059 62.2416 4.10059 62.3107C4.10059 62.38 3.90873 62.5726 3.67413 62.7388C3.43954 62.9049 3.30875 63.1186 3.38364 63.2134C3.45853 63.3083 3.4145 63.3349 3.28566 63.2725C3.15681 63.2102 2.98092 63.2484 2.89502 63.3573C2.73769 63.5564 3.21724 63.5398 6.15089 63.2441L7.22999 63.1353L6.08615 63.6652C5.02754 64.1555 4.54108 64.5796 4.80244 64.7842C4.86158 64.8306 6.30607 64.7125 8.01235 64.5218C11.8503 64.093 13.5054 64.0526 15.3807 64.3418C16.184 64.4659 16.807 64.5937 16.7656 64.6262C16.7242 64.6586 15.0306 64.9455 13.0023 65.2635C10.9741 65.5816 9.09188 65.9351 8.81973 66.0491L8.32507 66.2562L8.85664 66.4124C9.14907 66.4982 9.92236 66.5222 10.5752 66.4656C13.0077 66.2549 14.8916 65.9863 14.8916 65.8501C14.8916 65.7729 15.0259 65.7501 15.1901 65.7994C15.3544 65.8487 15.8585 65.768 16.3107 65.6201C16.7626 65.4723 17.8274 65.3054 18.6771 65.2491C20.1261 65.1533 20.2291 65.1692 20.342 65.5069C20.4082 65.7051 20.6823 65.9308 20.9512 66.0087C21.502 66.1682 21.4183 66.2225 20.1322 66.5391C19.1189 66.7886 17.6973 67.7125 17.6973 68.1215C17.6973 68.2719 18.1052 68.5277 18.6407 68.7132C20.1615 69.2398 20.0424 69.376 17.9677 69.4831C10.864 69.8495 8.33046 70.1031 7.82523 70.4988C7.55243 70.7122 8.14141 71.19 8.67233 71.186C8.96066 71.1836 9.36079 71.3039 9.56172 71.4533C9.90315 71.707 9.89193 71.7393 9.38777 71.9505C8.69866 72.2392 8.69045 72.5202 9.37417 72.418C10.2131 72.2924 10.5271 72.5389 10.0516 72.9502C9.68452 73.2676 9.68172 73.3035 10.0154 73.4036C10.2146 73.4636 10.8834 73.464 11.5015 73.4047C14.2843 73.1375 16.697 73.1026 18.7494 73.2994C19.9539 73.4148 20.9868 73.5694 21.0447 73.6425C21.1025 73.7159 20.8524 73.8571 20.4887 73.9563C19.68 74.1769 17.6973 75.167 17.6973 75.3502C17.6973 75.4233 18.0372 75.533 18.4527 75.594C18.8681 75.655 19.208 75.7671 19.208 75.843C19.208 75.9844 17.7884 76.2338 15.8628 76.4309C14.3614 76.5847 9.76222 77.4518 8.84433 77.7544C8.42651 77.8921 7.91436 78.1519 7.70631 78.3318C7.33683 78.6515 7.36121 78.6613 8.78995 78.7669C9.59366 78.8264 11.2227 78.8796 12.4097 78.885C14.4546 78.8946 14.5418 78.9093 14.0711 79.1661C13.7979 79.3152 13.4318 79.7039 13.2579 80.0302C12.9572 80.5931 12.9259 80.6068 12.6361 80.2993C12.4034 80.0526 12.2703 80.0224 12.076 80.1721C11.7236 80.4441 11.9724 80.6896 12.7334 80.8204C13.0867 80.8812 13.4284 80.9973 13.4925 81.0783C13.7467 81.4005 12.9447 81.5548 6.90626 82.3447C4.75475 82.6261 2.91358 83.2148 2.91358 83.6214C2.91358 83.7536 3.32105 83.9718 3.81916 84.1067C4.59547 84.3167 5.08905 84.3202 7.2723 84.1312C14.2925 83.5234 26.8839 83.1218 29.501 83.4221C30.309 83.5147 32.2814 83.7199 33.8839 83.8781C35.4863 84.0364 37.1859 84.2967 37.6607 84.4569L38.524 84.748L37.2291 84.8627C35.3152 85.0324 34.9578 85.1118 34.8171 85.3985C34.6164 85.8084 35.0012 85.9743 36.6015 86.1677C37.4363 86.2686 38.1683 86.4514 38.265 86.583C38.36 86.7124 38.7679 86.8182 39.1715 86.8182C39.5753 86.8182 40.3844 86.8986 40.9697 86.9968C41.9648 87.1639 47.5649 87.5731 51.4732 87.7643C53.8503 87.8807 57.4105 87.553 57.7681 87.1848C58.2043 86.7357 58.1112 86.6492 57.1925 86.6492C56.7177 86.6492 56.3292 86.5732 56.3292 86.4803C56.3292 86.1877 54.9359 86.2956 52.9777 86.7398C51.9388 86.9755 50.981 87.1336 50.8493 87.0911C50.7177 87.0487 50.7865 87.0078 51.0021 87.0005C51.2835 86.9909 51.3584 86.8983 51.2671 86.6731C51.074 86.1966 51.535 86.0109 53.6176 85.7266C55.8441 85.4226 57.9919 85.3909 58.8511 85.6492C59.7526 85.9204 61.516 86.0108 62.1445 85.8182C62.4477 85.7252 64.1339 85.5695 65.8916 85.472C69.0844 85.2947 70.1985 85.0614 71.2314 84.3532C71.4153 84.2271 72.5322 84.0399 73.7134 83.9372C74.9489 83.8298 76.0052 83.6488 76.2005 83.5113C76.6662 83.183 80.3173 82.6003 81.9288 82.5971C82.9343 82.595 83.3843 82.5109 83.8183 82.2436C84.1653 82.0299 84.9501 81.8305 85.8267 81.7334C86.6184 81.6455 87.3768 81.5017 87.5123 81.4136C87.9068 81.1572 90.3976 80.7038 92.1555 80.5681C93.0457 80.4995 95.5708 80.2405 97.7668 79.9927C101.081 79.6186 103.069 79.513 109.462 79.3723L117.165 79.2026L118.458 79.6287L119.752 80.055L127.814 79.8614C132.248 79.7548 136.164 79.7289 136.515 79.8038C137.073 79.9227 136.84 80.0004 134.672 80.4194C133.307 80.6832 131.705 80.9018 131.111 80.9052C130.518 80.9086 129.546 81.0103 128.953 81.1311C127.936 81.3382 127.873 81.3831 127.862 81.9103C127.849 82.5193 128.091 82.4149 123.881 83.6309C123.228 83.8195 121.152 84.191 119.266 84.4566C116.247 84.8817 115.74 85.0009 115.016 85.4563C114.564 85.7408 114.131 85.9734 114.054 85.9734C113.977 85.9734 113.667 86.1255 113.365 86.3113C113.063 86.4972 112.641 86.6492 112.426 86.6492C111.861 86.6492 111.675 86.9942 112.185 87.0987C112.423 87.1475 112.677 87.3514 112.748 87.5518C112.877 87.915 112.879 87.9149 113.293 87.4966C113.521 87.2656 113.779 87.1326 113.867 87.2009C113.954 87.2691 113.926 87.3251 113.804 87.3251C113.683 87.3251 113.57 87.534 113.554 87.7897C113.388 90.427 113.384 90.3987 114.026 90.9442C115.179 91.924 115.248 92.0002 115.248 92.2811C115.248 92.6251 115.44 92.6275 118.286 92.3176C121.647 91.9515 126.454 91.5823 129.492 91.4568C131.982 91.3541 132.3 91.3017 133.618 90.7785C135.937 89.8578 138.529 89.4905 145.463 89.0994C148.015 88.9555 151.373 88.7267 152.925 88.5909C154.477 88.455 157.876 88.2671 160.478 88.1734C169.147 87.8611 172.959 87.6354 173.542 87.4002C174.021 87.2066 174.172 87.2113 174.577 87.4334C174.837 87.5761 175.184 87.653 175.348 87.6038C175.773 87.4761 175.498 86.8182 175.019 86.8182C174.804 86.8182 174.354 86.7368 174.02 86.6374C173.513 86.4867 173.47 86.4313 173.758 86.3049C174.162 86.128 178.405 85.869 183.411 85.716C186.598 85.6185 186.962 85.636 187.208 85.9001C187.465 86.175 187.543 86.1755 188.54 85.9097C189.627 85.6196 194.484 85.2398 199.634 85.0422C201.237 84.9807 203.033 84.8232 203.627 84.6923C205.126 84.3611 209.487 84.1558 219.863 83.9276C226.56 83.7803 229.073 83.7797 230.02 83.9256C231.551 84.1614 232.505 84.0416 233.576 83.4783C234.181 83.1607 234.357 82.9693 234.262 82.7346C233.858 81.7395 238.345 81.5457 260.927 81.5823C269.652 81.5965 277.227 81.6715 277.76 81.7491C278.297 81.8273 278.781 81.8253 278.845 81.7444C278.908 81.6639 279.102 81.6692 279.278 81.7559C279.692 81.9608 281.214 81.9652 281.214 81.7614C281.214 81.6645 281.483 81.6645 281.914 81.7614C282.299 81.8478 283.489 81.925 284.558 81.9327C285.627 81.9407 287.085 82.0243 287.797 82.1189C288.509 82.2134 289.82 82.3027 290.711 82.3176C292.251 82.3431 294.623 82.6288 295.976 82.9519C296.321 83.034 296.908 83.1012 297.282 83.1012C297.656 83.1012 298.068 83.1843 298.198 83.2859C298.368 83.4194 298.558 83.4185 298.881 83.283C300.225 82.7202 314.751 82.9846 336.303 83.9646C342.446 84.2439 347.561 84.4295 347.669 84.377C347.778 84.3246 347.899 84.3538 347.939 84.4417C348.053 84.6946 358.362 85.5276 364.845 85.8077C366.982 85.8999 371.205 86.2481 374.229 86.5815C378.844 87.09 380.025 87.1671 381.567 87.0606C382.578 86.9909 386.271 86.9208 389.772 86.9045C393.501 86.8875 396.631 86.7962 397.326 86.6844C397.979 86.5795 398.853 86.4717 399.268 86.4446C399.684 86.4178 400.024 86.3265 400.024 86.2419C400.024 86.1572 399.684 85.9917 399.268 85.8737C398.551 85.6703 398.58 85.6642 399.841 85.7543C402.009 85.9092 402.986 85.5644 401.628 85.1239C400.641 84.8041 401.228 84.6274 403.288 84.6243C405.197 84.6216 406.39 84.4875 406.39 84.276C406.39 84.1058 405.28 83.8331 404.016 83.6927C403.482 83.6334 402.608 83.4771 402.074 83.3455C401.54 83.2139 399.434 82.8814 397.395 82.6067C392.387 81.9317 391.943 81.8317 392.085 81.4097C392.27 80.8528 394.197 81 398.494 81.8991C400.42 82.3024 401.236 82.3502 401.157 82.0552C401.118 81.9103 401.564 81.867 402.752 81.9005C405.542 81.9789 405.119 81.4205 401.826 80.6793C399.73 80.2076 399.053 79.9661 399.053 79.6911C399.053 79.4022 402.234 79.6316 404.995 80.1194C407.642 80.5872 410.319 80.8391 410.697 80.656C410.879 80.5683 410.855 80.4272 410.612 80.1366C410.305 79.7696 410.314 79.6906 410.719 79.1526C411.245 78.4547 411.35 78.5015 408.432 78.1359C407.359 78.0015 405.906 77.7332 405.202 77.5398C404.499 77.3462 403.891 77.1879 403.853 77.1879C403.814 77.1879 403.81 77.06 403.845 76.9035C403.897 76.6722 403.549 76.5619 401.985 76.3127C400.927 76.1441 400.012 75.968 399.953 75.9212C399.762 75.7722 402.201 75.8298 403.897 76.0146C405.382 76.1763 405.59 76.1627 406.124 75.8678C407.094 75.3334 407.514 75.3094 409.713 75.6636C411.519 75.9545 411.896 75.9704 412.394 75.7763C412.895 75.5806 416.138 74.699 416.912 74.548C417.38 74.4566 417.205 74.0403 416.609 73.8277L416.036 73.6235L416.498 73.3704C416.752 73.231 417.125 73.1397 417.326 73.1673C417.597 73.2045 417.74 73.0438 417.875 72.5489C418.117 71.6585 418.007 71.4987 416.985 71.2589C416.508 71.1471 415.914 70.8856 415.664 70.6777L415.211 70.2998L416.25 70.1167C416.822 70.016 418.115 69.8002 419.124 69.6373C420.935 69.3447 421.93 68.8752 421.93 68.3129C421.93 68.1979 422.124 68.0639 422.362 68.0152C422.986 67.8875 422.7 67.4823 421.755 67.1556C421.317 67.0042 419.793 66.6452 418.368 66.358C416.944 66.0706 415.625 65.7288 415.438 65.5983C415.251 65.4679 414.967 65.3611 414.809 65.3611C414.271 65.3611 414.823 65.1207 415.843 64.9099C416.401 64.7946 417.754 64.6968 418.85 64.6928C420.023 64.6884 421.176 64.5867 421.655 64.4452C422.14 64.3021 423.624 64.1734 425.328 64.1269C427.483 64.0681 428.32 63.9808 428.726 63.7726C429.022 63.6206 429.241 63.4062 429.212 63.296C429.183 63.1857 429.257 63.0884 429.375 63.0796C430.02 63.0319 430.562 62.7675 430.562 62.5006C430.562 62.0447 429.61 61.3894 428.458 61.052C426.881 60.5902 426.766 60.4699 427.475 60.0242L428.08 59.6439L427.433 59.4613C427.077 59.3609 426.622 59.205 426.421 59.1151C426.221 59.025 425.064 58.8351 423.85 58.6931C422.636 58.551 421.594 58.3965 421.534 58.3499C421.32 58.1823 428.973 58.2693 431.2 58.4597C433.321 58.641 433.593 58.6288 435.201 58.2801C436.989 57.892 437.684 57.5609 437.684 57.0975C437.684 56.6847 436.565 56.3845 434.491 56.241C432.585 56.1091 432.165 56.018 430.239 55.3199C429.645 55.1048 428.799 54.8783 428.358 54.8164C427.22 54.6568 427.169 54.4285 428.241 54.2933C428.767 54.2271 429.306 54.0321 429.502 53.8373C429.776 53.565 430.25 53.4651 431.87 53.3379C432.985 53.2504 433.965 53.0923 434.048 52.9863C434.132 52.8804 433.964 52.5744 433.676 52.3064C433.071 51.7435 433.022 51.464 433.476 51.1691C433.654 51.0533 433.8 50.8489 433.8 50.7147C433.8 50.509 434.164 50.491 436.12 50.6009C439.679 50.8007 439.735 50.7979 439.735 50.4088C439.735 50.2217 439.521 49.9974 439.256 49.9063C438.987 49.814 438.777 49.591 438.777 49.3994C438.777 49.2112 438.715 48.8101 438.638 48.508C438.542 48.1306 438.581 47.9589 438.76 47.9589C439.158 47.9589 440.545 47.4171 441.017 47.0773C441.431 46.779 441.431 46.7734 441.017 46.5281C440.786 46.3917 440.498 46.2777 440.376 46.2748C438.96 46.2405 430.771 45.4865 428.188 45.1525C424.817 44.7166 423.867 44.4978 423.711 44.1215C423.547 43.727 424.881 43.6765 429.591 43.8988C437.238 44.2597 438.366 44.2829 438.62 44.0838C439.129 43.6859 438.208 43.3751 435.826 43.1397C433.22 42.8824 431.609 42.5467 430.092 41.9454C429.058 41.5357 428.689 41.2593 428.927 41.0733C429.001 41.0155 430.335 40.9844 431.893 41.0043C434.339 41.0356 434.784 40.9998 435.163 40.7406C435.403 40.5755 435.53 40.5355 435.443 40.6517C435.344 40.7842 435.414 40.8629 435.631 40.8629C436.008 40.8629 437.037 40.1351 437.037 39.8683C437.037 39.6199 436.315 39.4891 435.158 39.528C434.243 39.5588 428.644 38.9027 428.428 38.7393C428.256 38.6092 429.455 38.3555 431.115 38.1708C435.16 37.7204 434.849 37.6085 427.545 36.8847C425.144 36.6467 424.095 36.4765 424.969 36.4666C426.017 36.4547 432.582 35.9594 432.677 35.885C432.74 35.835 432.737 35.7511 432.669 35.698C432.511 35.5737 429.661 35.0217 428.404 34.8717C426.945 34.6976 426.689 34.6162 426.812 34.365C427.054 33.8706 428.11 33.726 430.559 33.8512C432.534 33.9522 433.065 33.9264 433.675 33.6998C434.08 33.5498 435.004 33.3781 435.73 33.3188C436.456 33.2593 437.099 33.1497 437.158 33.0748C437.312 32.8802 436.647 32.6428 435.548 32.5002C435.026 32.4325 434.298 32.2823 433.93 32.1665C433.561 32.0506 432.501 31.8577 431.574 31.7376C430.647 31.6173 430.003 31.4635 430.143 31.3956C430.45 31.2469 429.716 31.0613 426.843 30.5613C424.803 30.2063 424.279 30.0171 424.732 29.7982C425.068 29.6355 424.992 29.2051 424.627 29.2051C424.449 29.2051 424.304 29.1291 424.304 29.0362C424.304 28.9433 424.589 28.8672 424.938 28.8672C425.747 28.8672 425.993 28.5729 425.342 28.3839C425.068 28.3043 423.36 28.149 421.547 28.0388C419.735 27.9289 417.792 27.731 417.231 27.5994C416.67 27.4678 415.482 27.2448 414.592 27.1039C412.931 26.8408 412.217 26.71 409.412 26.1537C408.522 25.9771 405.851 25.7141 403.477 25.5691C399.4 25.3202 394.356 24.9433 391.715 24.6902L390.528 24.5765L392.362 24.3658C395.556 23.999 396.97 23.2468 394.79 23.0743C392.762 22.9136 388.099 22.6165 385.322 22.4707C382.869 22.3417 382.429 22.2738 382.031 21.9621C381.707 21.7083 381.302 21.6022 380.658 21.6022C379.517 21.6022 366.905 21.1033 366.464 21.0408C366.286 21.0156 366.571 20.8798 367.098 20.7389C368.188 20.4474 368.449 20.1469 367.717 20.0244C367.181 19.9345 378.191 20.0489 387.83 20.2334C391.094 20.2959 394.105 20.2923 394.52 20.2258C395.193 20.1176 395.158 20.1067 394.197 20.1256C391.739 20.1739 389.772 20.0749 389.772 19.9027C389.772 19.8044 389.869 19.7708 389.988 19.8282C390.107 19.8857 390.204 19.852 390.204 19.7537C390.204 19.6554 390.004 19.5748 389.76 19.5748C389.515 19.5748 389.375 19.6508 389.449 19.7437C389.66 20.0119 389.36 19.9402 388.917 19.6169C388.437 19.2668 388.265 19.2651 394.406 19.6728C398.322 19.9328 399.836 20.1602 396.948 20.0545C396.087 20.023 395.383 20.0543 395.383 20.1239C395.384 20.3048 398.571 20.2814 398.715 20.0994C398.781 20.0161 398.665 19.8973 398.458 19.8351C397.811 19.6407 385.648 18.9204 378.434 18.6493C374.64 18.5068 370.467 18.3146 369.161 18.2222C364.435 17.8881 358.692 17.5514 353.299 17.2924C350.272 17.1471 347.663 16.9922 347.502 16.9482C347.341 16.9043 345.795 16.7898 344.067 16.6936C342.234 16.5918 340.691 16.422 340.367 16.2863C338.777 15.6226 335.569 15.3716 319.738 14.6723C308.956 14.196 291.319 13.1088 289.955 12.8363C289.522 12.7498 290.403 12.6676 292.615 12.5884C295.078 12.5 296.057 12.401 296.448 12.2007C297.019 11.9077 296.432 11.8957 306.573 12.4061C309.303 12.5436 312.654 12.7295 314.019 12.819C315.384 12.9087 318.978 13.0983 322.005 13.2401C325.031 13.382 328.333 13.5788 329.342 13.6778C330.351 13.7767 332.707 13.8851 334.577 13.9189C336.447 13.9527 338.067 14.0238 338.177 14.0771C338.548 14.2563 340.781 13.9644 340.781 13.7368C340.781 13.4173 340.98 13.4002 343.617 13.4925C344.945 13.5389 346.913 13.5205 347.992 13.4518C349.071 13.3828 350.148 13.3139 350.385 13.2987C350.622 13.2835 351.681 13.3624 352.737 13.4741C353.793 13.5857 356.076 13.7185 357.809 13.7691C365.668 13.9983 366.248 14.0309 366.088 14.2337C365.913 14.4553 369.457 14.258 369.748 14.0297C369.885 13.9231 369.945 13.7959 369.882 13.7469C369.721 13.6207 365.97 13.3664 361.176 13.1566C358.921 13.0579 355.764 12.8653 354.162 12.7288C352.559 12.5923 349.549 12.4026 347.471 12.3071C343.781 12.1378 337.117 11.5324 336.898 11.3468C336.738 11.2109 342.642 11.4655 343.886 11.6482C344.466 11.7333 347.477 11.8029 350.576 11.8029C354.966 11.8029 356.976 11.879 359.665 12.1464C362.283 12.4068 363.227 12.4445 363.568 12.302C363.904 12.1613 364.766 12.1821 367 12.3848C370.919 12.7405 376.238 12.8858 377.47 12.6709C378.338 12.5195 378.278 12.5114 376.903 12.5943C376.053 12.6457 375.195 12.6132 374.987 12.5218C374.655 12.3765 374.695 12.3228 375.317 12.0797C376.245 11.7173 377.87 11.7093 378.045 12.066C378.116 12.2108 378.296 12.2926 378.445 12.2476C378.628 12.1927 378.683 12.2856 378.614 12.5337C378.533 12.8271 378.558 12.8505 378.738 12.6492C378.935 12.4282 379.041 12.4335 379.601 12.6926C380.04 12.8956 380.265 12.9272 380.322 12.7935C380.384 12.6489 380.53 12.6516 380.893 12.804C381.162 12.9165 381.934 12.993 382.61 12.9741C383.44 12.9506 384.104 13.0407 384.659 13.2521C385.37 13.5224 385.508 13.5312 385.681 13.3173C386.029 12.8864 385.916 12.3551 385.456 12.2608C385.218 12.2123 385.024 12.2414 385.024 12.3257C385.024 12.4098 385.17 12.4788 385.348 12.4788C385.713 12.4788 385.792 13.0765 385.449 13.2423C385.327 13.3016 384.916 13.196 384.536 13.0077L383.846 12.6656L384.381 12.5011C384.853 12.3559 384.802 12.3358 383.945 12.3296C382.501 12.3193 380.361 12.1844 379.914 12.0756C379.698 12.0231 379.205 11.9619 378.819 11.94C378.434 11.918 378.118 11.8514 378.118 11.792C378.118 11.7325 377.074 11.6323 375.798 11.5694C374.522 11.5066 372.021 11.3061 370.24 11.1238C366.139 10.7039 353.394 9.83734 347.971 9.60976C345.694 9.51413 341.518 9.25141 338.691 9.02603C335.824 8.79726 331.26 8.57053 328.371 8.51291C325.522 8.45632 320.375 8.30155 316.933 8.1691C313.49 8.03664 307.76 7.84927 304.199 7.75279C295.466 7.51609 290.646 7.30625 280.567 6.72438C272.836 6.27783 257.606 5.55167 255.975 5.55167C255.613 5.55167 255.304 5.60861 255.29 5.67839ZM150.859 6.39644C150.859 6.48936 150.956 6.56539 151.075 6.56539C151.193 6.56539 151.29 6.48936 151.29 6.39644C151.29 6.30351 151.193 6.22748 151.075 6.22748C150.956 6.22748 150.859 6.30351 150.859 6.39644ZM101.652 11.8029C101.652 11.8959 101.803 11.9719 101.988 11.9719C102.173 11.9719 102.265 11.8959 102.191 11.8029C102.118 11.71 101.966 11.634 101.855 11.634C101.743 11.634 101.652 11.71 101.652 11.8029ZM376.068 12.1408C375.994 12.2338 376.091 12.3098 376.283 12.3098C376.476 12.3098 376.573 12.2338 376.499 12.1408C376.426 12.0479 376.329 11.9719 376.283 11.9719C376.238 11.9719 376.141 12.0479 376.068 12.1408ZM379.961 12.3211C380.18 12.5977 380.005 12.6127 379.413 12.3684C378.895 12.1549 378.893 12.1457 379.346 12.1434C379.606 12.142 379.883 12.2219 379.961 12.3211ZM382.974 12.5583L383.837 12.8018L382.53 12.8092C381.701 12.814 381.068 12.7258 380.803 12.5686C380.412 12.3372 380.442 12.3203 381.247 12.3177C381.722 12.3162 382.499 12.4245 382.974 12.5583ZM387.486 13.0118C387.39 13.1326 387.426 13.161 387.581 13.0861C387.718 13.0199 387.83 13.0463 387.83 13.1446C387.83 13.374 387.253 13.3786 387.109 13.1503C387.048 13.0551 387.024 13.0741 387.055 13.1926C387.139 13.5173 387.921 13.4513 388.005 13.1123C388.086 12.781 387.723 12.7107 387.486 13.0118ZM389.125 13.5572C389.125 13.6858 389.319 13.8307 389.556 13.8794C390.042 13.9789 390.116 13.829 389.729 13.5263C389.384 13.2564 389.125 13.2696 389.125 13.5572ZM368.838 14.0093C368.838 14.0968 368.741 14.1683 368.622 14.1683C368.503 14.1683 368.406 14.0497 368.406 13.9049C368.406 13.7601 368.503 13.6885 368.622 13.7459C368.741 13.8033 368.838 13.9218 368.838 14.0093ZM369.642 13.9324C369.571 13.9885 369.385 13.9946 369.229 13.9458C369.057 13.8919 369.108 13.8518 369.359 13.8437C369.587 13.8365 369.714 13.8763 369.642 13.9324ZM370.51 14.096C370.184 14.2347 369.917 14.3837 369.917 14.4271C369.917 14.4705 370.864 14.4986 372.021 14.4893C373.336 14.4788 373.923 14.4246 373.586 14.3447L373.046 14.2168L373.586 14.1115C373.882 14.0536 374.465 13.9759 374.881 13.939C375.296 13.9022 375.005 13.8765 374.233 13.8823C372.746 13.8931 372.312 13.9699 372.694 14.1548C372.823 14.2169 372.378 14.2781 371.705 14.2904C370.972 14.3038 370.598 14.2561 370.773 14.1717C370.934 14.0941 371.211 14.0745 371.389 14.1281C371.601 14.1916 371.66 14.1568 371.558 14.0281C371.361 13.7782 371.24 13.7859 370.51 14.096ZM367.053 14.1014C366.981 14.1575 366.795 14.1636 366.639 14.1147C366.467 14.0608 366.518 14.0208 366.769 14.0127C366.997 14.0054 367.124 14.0453 367.053 14.1014ZM375.798 14.1157C375.322 14.258 375.51 14.4212 376.17 14.4395C376.522 14.4493 376.772 14.409 376.725 14.3503C376.679 14.2913 377.337 14.2729 378.189 14.3092C379.04 14.3455 379.688 14.3393 379.629 14.2953C379.471 14.1783 376.115 14.021 375.798 14.1157ZM380.384 14.3489C379.994 14.4101 380.38 14.4553 381.355 14.4628C382.991 14.4756 383.172 14.4092 381.787 14.3048C381.371 14.2734 380.74 14.2933 380.384 14.3489ZM374.773 14.6714C375.563 14.8333 377.161 14.8836 376.979 14.7409C376.907 14.6841 376.235 14.6153 375.486 14.5881C374.517 14.5528 374.312 14.5768 374.773 14.6714ZM384.113 14.63C384.62 14.6659 385.397 14.6653 385.839 14.629C386.281 14.5927 385.866 14.5635 384.916 14.5641C383.967 14.5647 383.605 14.5944 384.113 14.63ZM387.29 14.7922C389.259 14.9943 388.563 15.3846 386.427 15.2761L384.916 15.1994L386.388 15.3716C387.662 15.5206 387.936 15.5045 388.43 15.2509C388.968 14.975 388.977 14.9507 388.577 14.8286C388.344 14.7573 387.814 14.7049 387.398 14.7123C386.694 14.7248 386.687 14.7304 387.29 14.7922ZM378.503 14.9688C379.13 15.0031 380.101 15.0027 380.661 14.9681C381.221 14.9333 380.708 14.9054 379.521 14.9058C378.334 14.9063 377.876 14.9347 378.503 14.9688ZM382.812 15.1352C383.198 15.1727 383.829 15.1727 384.215 15.1352C384.601 15.0979 384.285 15.0671 383.513 15.0671C382.742 15.0671 382.426 15.0979 382.812 15.1352ZM392.794 15.4956C392.794 15.5753 393.076 15.6323 393.42 15.6223C393.765 15.6125 394.001 15.5473 393.947 15.4777C393.809 15.302 392.794 15.3178 392.794 15.4956ZM394.519 15.6933C394.295 15.8041 394.575 15.8534 395.438 15.8553C396.12 15.8566 396.679 15.7914 396.679 15.7103C396.679 15.5091 394.919 15.4952 394.519 15.6933ZM38.7398 17.8853C39.1289 18.0162 39.1326 18.0316 38.778 18.0424C38.1962 18.06 38.4185 18.6072 39.0646 18.7479C39.4738 18.8371 39.3571 18.8694 38.578 18.8821C37.9594 18.8922 37.5528 18.8248 37.5528 18.7119C37.5528 18.6091 37.6801 18.5633 37.836 18.6099C38.0406 18.6714 38.0937 18.5597 38.0272 18.2056C37.9309 17.6925 38.0319 17.647 38.7398 17.8853ZM37.7686 18.2093C37.7686 18.4866 36.851 19.0681 36.4113 19.0695C36.1489 19.0701 35.4091 19.1201 34.7672 19.1806C33.4779 19.3018 33.3413 19.0176 34.5877 18.8069C34.9722 18.7419 35.7214 18.5168 36.2525 18.3068C37.1406 17.9559 37.7686 17.9155 37.7686 18.2093ZM39.1715 18.3921C39.2448 18.485 39.1533 18.5611 38.9684 18.5611C38.7834 18.5611 38.6319 18.485 38.6319 18.3921C38.6319 18.2992 38.7232 18.2232 38.835 18.2232C38.9468 18.2232 39.0981 18.2992 39.1715 18.3921ZM387.83 19.3824C387.83 19.4624 387.587 19.4917 387.29 19.4472C386.994 19.4028 386.751 19.3372 386.751 19.3016C386.751 19.2661 386.994 19.2369 387.29 19.2369C387.587 19.2369 387.83 19.3024 387.83 19.3824ZM44.3427 19.7329C44.4114 19.8199 44.6531 19.8803 44.8799 19.8669C45.4177 19.8351 45.2121 19.5748 44.6494 19.5748C44.412 19.5748 44.2739 19.6459 44.3427 19.7329ZM71.0631 19.6856C70.917 19.7319 70.6256 19.7348 70.4156 19.6919C70.2056 19.649 70.3252 19.6111 70.6813 19.6077C71.0374 19.6044 71.2092 19.6393 71.0631 19.6856ZM390.636 19.7437C390.636 19.8367 391.048 19.9115 391.553 19.9102C392.224 19.9081 392.383 19.8637 392.146 19.7437C391.72 19.5282 390.636 19.5282 390.636 19.7437ZM54.8185 23.2918C54.8185 23.3847 54.7757 23.4607 54.7233 23.4607C54.6708 23.4607 54.5681 23.3847 54.4947 23.2918C54.4214 23.1988 54.4643 23.1228 54.5899 23.1228C54.7155 23.1228 54.8185 23.1988 54.8185 23.2918ZM73.5949 25.1313L74.5661 25.2564L73.7028 25.4556C73.228 25.565 71.7913 25.7049 70.5099 25.7663C68.5391 25.8605 68.1905 25.9193 68.2462 26.1476C68.2861 26.311 68.609 26.4519 69.065 26.5047L69.818 26.5921L69.2785 26.87C68.3992 27.3232 65.9244 27.8466 62.588 28.2853C59.2566 28.7234 57.5095 28.8113 57.732 28.5293C57.8054 28.4364 58.0819 28.3604 58.3467 28.3604C58.6113 28.3604 59.2126 28.2054 59.6829 28.0162C60.1529 27.827 60.6946 27.7031 60.8865 27.7412C61.3913 27.8408 63.6671 27.5087 63.6671 27.3352C63.6671 27.2544 63.805 27.2297 63.9734 27.2802C64.1419 27.3309 64.5073 27.2556 64.7855 27.1128C65.0637 26.9702 65.7992 26.7681 66.4197 26.6639C67.5866 26.4681 68.015 26.2191 67.562 25.9999C67.3952 25.9192 67.521 25.8335 67.9121 25.7619C68.2481 25.7004 69.2029 25.504 70.0338 25.3255C71.689 24.9698 72.1459 24.9448 73.5949 25.1313ZM52.9192 27.3804C52.7768 27.4919 52.6603 27.644 52.6603 27.7183C52.6603 27.9197 53.26 27.8817 53.4273 27.6699C53.6496 27.3884 53.221 27.1442 52.9192 27.3804ZM50.5851 27.8405C49.0912 28.382 48.8586 28.5707 49.3174 28.8687C49.4942 28.9836 49.6388 29.1823 49.6388 29.3102C49.6388 29.5993 49.9321 29.6061 50.559 29.3318C50.8245 29.2158 51.0757 29.1066 51.1171 29.0897C51.1588 29.0727 51.1243 28.972 51.0407 28.866C50.9384 28.7366 50.7859 28.7883 50.5752 29.0238C50.1766 29.4692 50.0512 29.4589 49.5697 28.9412L49.1769 28.5188L50.5901 28.0172C51.3673 27.7413 52.054 27.5156 52.116 27.5156C52.3855 27.5156 52.1969 27.9958 51.8913 28.0877C51.7057 28.1434 51.6073 28.2568 51.6727 28.3398C51.8291 28.5379 53.0919 28.6805 53.0919 28.5001C53.0919 28.4232 52.782 28.3604 52.4032 28.3604C51.7709 28.3604 51.7471 28.3416 52.1144 28.1314C52.3594 27.9912 52.4617 27.7947 52.3784 27.6246C52.2029 27.2666 52.1514 27.2728 50.5851 27.8405ZM53.3077 27.5156C53.3077 27.6085 53.2048 27.6846 53.0792 27.6846C52.9536 27.6846 52.9106 27.6085 52.984 27.5156C53.0574 27.4227 53.1601 27.3466 53.2125 27.3466C53.265 27.3466 53.3077 27.4227 53.3077 27.5156ZM51.6392 28.8154C51.8492 28.8583 52.1406 28.8554 52.2867 28.8091C52.4328 28.7628 52.261 28.7278 51.9049 28.7312C51.5488 28.7346 51.4292 28.7724 51.6392 28.8154ZM42.9483 30.8947C42.9483 30.9876 43.0454 31.0636 43.1642 31.0636C43.2829 31.0636 43.38 30.9876 43.38 30.8947C43.38 30.8017 43.2829 30.7257 43.1642 30.7257C43.0454 30.7257 42.9483 30.8017 42.9483 30.8947ZM436.702 32.9452C436.823 33.0309 436.678 33.0911 436.352 33.0911C436.046 33.0911 435.468 33.1355 435.068 33.1897C434.532 33.2624 434.423 33.2423 434.657 33.1144C434.931 32.9643 434.923 32.925 434.603 32.8287C434.399 32.7672 434.231 32.6601 434.231 32.5904C434.231 32.4321 436.424 32.7469 436.702 32.9452ZM54.3868 32.7532L53.1998 32.867L54.2789 32.8827C54.8724 32.8914 55.5523 32.8331 55.7897 32.7532C56.2763 32.5894 56.0931 32.5894 54.3868 32.7532ZM55.5738 33.0336C55.099 33.1747 54.225 33.3501 53.6315 33.423C52.6665 33.5417 52.635 33.558 53.3345 33.5768C53.7648 33.5885 54.5297 33.4839 55.0343 33.3445C55.5389 33.2051 56.2552 33.0899 56.6262 33.0885C57.1409 33.0865 57.2238 33.0471 56.9767 32.9221C56.5826 32.7227 56.6331 32.7187 55.5738 33.0336ZM416.75 32.9226C417.48 33.0312 417.292 33.0439 415.994 32.974C415.045 32.923 414.228 32.8523 414.178 32.817C414.018 32.703 415.752 32.7743 416.75 32.9226ZM51.4193 33.0431C51.7456 33.0818 52.28 33.0818 52.6063 33.0431C52.9326 33.0044 52.6657 32.9728 52.0128 32.9728C51.3599 32.9728 51.093 33.0044 51.4193 33.0431ZM50.3892 33.4246C50.908 33.8735 51.4143 33.9787 52.0355 33.7665C52.5347 33.5962 52.5318 33.5934 51.9543 33.6826C51.2928 33.785 50.4181 33.503 50.6167 33.2516C50.6864 33.1632 50.5769 33.0911 50.3734 33.0911C50.0294 33.0911 50.0305 33.1144 50.3892 33.4246ZM47.4806 33.5979C47.4806 33.6908 47.6321 33.7669 47.817 33.7669C48.002 33.7669 48.0935 33.6908 48.0201 33.5979C47.9467 33.505 47.7954 33.429 47.6837 33.429C47.5719 33.429 47.4806 33.505 47.4806 33.5979ZM40.3585 36.2736C40.3585 36.3644 40.5769 36.401 40.8441 36.3552C41.2466 36.2861 41.2744 36.3054 41.0059 36.4683C40.7843 36.6029 40.7724 36.6462 40.9682 36.6055C41.443 36.507 41.3625 36.2204 40.8441 36.1626C40.5769 36.1331 40.3585 36.1829 40.3585 36.2736ZM436.695 39.8265C436.759 39.9071 436.633 40.0991 436.415 40.2533C436.062 40.5035 435.991 40.5059 435.747 40.2758C435.524 40.0661 435.529 40.0176 435.77 40.0156C436.002 40.0136 435.996 39.9778 435.742 39.8492C435.489 39.7211 435.545 39.6848 435.999 39.6828C436.319 39.6814 436.632 39.7461 436.695 39.8265ZM41.1678 41.1483C40.96 41.1908 40.6203 41.1908 40.4124 41.1483C40.2046 41.1059 40.3747 41.0711 40.7901 41.0711C41.2056 41.0711 41.3756 41.1059 41.1678 41.1483ZM437.994 43.5619C438.746 43.7858 438.693 44.073 437.9 44.073C437.484 44.073 437.253 43.9872 437.253 43.8319C437.253 43.6995 437.083 43.5562 436.875 43.5136C436.583 43.4538 436.604 43.432 436.969 43.4168C437.228 43.406 437.69 43.4714 437.994 43.5619ZM441.03 46.7763C441.103 46.8692 441.017 46.9452 440.839 46.9452C440.661 46.9452 440.456 46.8692 440.382 46.7763C440.309 46.6833 440.395 46.6073 440.573 46.6073C440.751 46.6073 440.956 46.6833 441.03 46.7763ZM439.627 50.4088C439.627 50.5482 439.469 50.6622 439.277 50.6622C438.99 50.6622 438.975 50.6164 439.195 50.4088C439.343 50.2694 439.501 50.1553 439.545 50.1553C439.59 50.1553 439.627 50.2694 439.627 50.4088ZM17.1834 50.7507C16.7464 51.0929 16.7363 51.2346 17.1577 51.1079C17.3358 51.0545 17.4815 51.0401 17.4815 51.0761C17.4815 51.1119 17.5404 51.2616 17.6125 51.4086C17.7674 51.7249 17.0513 51.7788 16.3881 51.501C15.8054 51.2569 15.8639 51.0863 16.6665 50.6884C17.4457 50.3022 17.715 50.3346 17.1834 50.7507ZM441.446 50.5813C441.674 50.7168 441.914 50.7864 441.979 50.7357C442.114 50.6298 441.566 50.3282 441.246 50.3322C441.127 50.3337 441.217 50.4459 441.446 50.5813ZM436.878 56.7868C437.144 56.903 437.401 57.0165 437.449 57.0392C437.618 57.1176 436.753 57.7582 436.479 57.7582C436.277 57.7582 436.252 57.6259 436.386 57.2612C436.544 56.8295 436.507 56.7548 436.101 56.6928C435.766 56.6416 435.741 56.6151 436.015 56.5985C436.224 56.5859 436.613 56.6707 436.878 56.7868ZM0.755373 60.4615C0.681994 60.5544 0.506315 60.6293 0.364953 60.6279C0.210425 60.6262 0.237187 60.5598 0.431641 60.4615C0.846233 60.2516 0.920907 60.2516 0.755373 60.4615ZM0.890908 61.264C1.15917 61.532 1.15162 61.5379 0.809328 61.3279C0.44977 61.1071 0.335601 60.9683 0.513222 60.9683C0.557897 60.9683 0.727963 61.1015 0.890908 61.264ZM430.347 62.4044C430.347 62.5329 430.249 62.6849 430.131 62.7424C430.008 62.8018 429.915 62.6564 429.915 62.4044C429.915 62.1525 430.008 62.0071 430.131 62.0665C430.249 62.124 430.347 62.276 430.347 62.4044ZM428.62 63.5772C428.62 63.6182 428.523 63.6986 428.404 63.7561C428.285 63.8135 428.188 63.7799 428.188 63.6816C428.188 63.5832 428.285 63.5026 428.404 63.5026C428.523 63.5026 428.62 63.5361 428.62 63.5772ZM5.28761 64.5164C5.36099 64.6093 5.31804 64.6853 5.19243 64.6853C5.06682 64.6853 4.96388 64.6093 4.96388 64.5164C4.96388 64.4234 5.00661 64.3474 5.05905 64.3474C5.1115 64.3474 5.21423 64.4234 5.28761 64.5164ZM24.1719 65.8492C24.1719 66.0201 22.6789 66.2762 22.5 66.1359C22.3577 66.0246 23.2689 65.7247 23.7942 65.7097C24.0021 65.7039 24.1719 65.7666 24.1719 65.8492ZM26.5999 65.8109C26.4516 65.8578 26.2088 65.8578 26.0604 65.8109C25.9121 65.7641 26.0334 65.7257 26.3301 65.7257C26.6269 65.7257 26.7484 65.7641 26.5999 65.8109ZM28.4299 65.97C28.3582 66.0261 28.1719 66.0322 28.0163 65.9834C27.8441 65.9295 27.8953 65.8895 28.1467 65.8813C28.3742 65.8741 28.5015 65.9139 28.4299 65.97ZM10.4673 66.2059C10.3939 66.2988 10.0484 66.3748 9.6992 66.3748C9.35 66.3748 9.06447 66.2988 9.06447 66.2059C9.06447 66.113 9.41022 66.0369 9.83258 66.0369C10.2897 66.0369 10.5467 66.1054 10.4673 66.2059ZM19.1001 67.3886C19.0268 67.4815 18.8025 67.5563 18.6018 67.555C18.2874 67.5526 18.2815 67.5296 18.5606 67.3886C18.9832 67.1747 19.2689 67.1747 19.1001 67.3886ZM8.7416 70.5999C8.81563 70.6935 8.72002 70.817 8.52924 70.8742C8.11615 70.9983 7.88587 70.8616 8.08443 70.61C8.26356 70.3829 8.56679 70.3784 8.7416 70.5999ZM14.4015 75.2625C14.315 75.3302 14.2442 75.5022 14.2442 75.6448C14.2442 75.8349 14.3081 75.8538 14.4842 75.7159C14.6162 75.6125 14.687 75.4405 14.6417 75.3336C14.5962 75.2267 14.488 75.1947 14.4015 75.2625ZM16.0966 75.3067C16.0035 75.4245 15.9858 75.5664 16.0571 75.6222C16.2502 75.7734 16.4609 75.551 16.3564 75.3061C16.2835 75.1344 16.2325 75.1344 16.0966 75.3067ZM20.503 77.0921C20.503 77.4577 19.707 77.5819 19.188 77.2972L18.7315 77.047L19.2396 76.9714C20.2222 76.8255 20.503 76.8521 20.503 77.0921ZM9.71431 77.946C9.56777 78.0842 9.50841 78.3207 9.58222 78.4717C9.68107 78.6731 9.62539 78.7186 9.37309 78.6427C9.18382 78.5859 8.74009 78.5395 8.38658 78.5395C7.60898 78.5395 7.74732 78.285 8.7034 77.9571C9.66942 77.6258 10.0581 77.6216 9.71431 77.946ZM410.707 78.7929C410.707 78.9323 410.669 79.0463 410.622 79.0463C410.575 79.0463 410.481 78.9323 410.413 78.7929C410.345 78.6535 410.383 78.5395 410.498 78.5395C410.613 78.5395 410.707 78.6535 410.707 78.7929ZM410.491 80.4079C410.491 80.4955 410.394 80.5669 410.275 80.5669C410.157 80.5669 410.059 80.4483 410.059 80.3035C410.059 80.1587 410.157 80.0871 410.275 80.1445C410.394 80.202 410.491 80.3204 410.491 80.4079ZM389.826 80.5098C389.678 80.5568 389.435 80.5568 389.287 80.5098C389.138 80.463 389.26 80.4247 389.556 80.4247C389.853 80.4247 389.975 80.463 389.826 80.5098ZM111.849 80.6788C111.701 80.7257 111.579 80.8717 111.579 81.0033C111.579 81.1858 111.875 81.2353 112.82 81.2115L114.061 81.1802L112.923 81.118C112.279 81.0829 111.839 80.9863 111.91 80.8959C112.079 80.6825 113.892 80.6901 114.061 80.9048C114.271 81.1711 114.601 81.1018 114.463 80.8204C114.374 80.6379 114.028 80.5706 113.229 80.5803C112.618 80.5875 111.998 80.632 111.849 80.6788ZM109.322 81.2311C109.254 81.3176 109.297 81.436 109.418 81.4945C109.675 81.619 110.069 81.4609 110.069 81.2328C110.069 81.0272 109.484 81.0258 109.322 81.2311ZM412.092 82.1096C412.016 82.2066 412.067 82.3744 412.206 82.4824C412.399 82.6322 412.426 82.5988 412.321 82.3409C412.184 82.0078 412.187 82.0076 412.524 82.331C412.803 82.5991 412.865 82.6101 412.865 82.3913C412.865 82.0703 412.289 81.8603 412.092 82.1096ZM4.89848 83.059C4.90215 83.2215 4.80935 83.4498 4.69216 83.5658C4.45929 83.797 3.23731 83.8603 3.23731 83.6414C3.23731 83.5451 4.57152 82.8324 4.87388 82.7672C4.88381 82.765 4.89481 82.8965 4.89848 83.059ZM39.711 82.828C39.711 82.8637 39.5166 82.9326 39.2792 82.9813C39.0415 83.0299 38.9015 83.0007 38.9682 82.9166C39.0843 82.7694 39.711 82.6947 39.711 82.828ZM198.177 82.8752C198.029 82.9221 197.786 82.9221 197.638 82.8752C197.49 82.8284 197.611 82.79 197.908 82.79C198.204 82.79 198.326 82.8284 198.177 82.8752ZM194.619 83.0483C194.413 83.0906 194.024 83.0921 193.756 83.0517C193.487 83.0113 193.656 82.9767 194.131 82.9749C194.606 82.973 194.825 83.0061 194.619 83.0483ZM294.164 83.1757C294.164 83.3097 294.24 83.456 294.333 83.5013C294.427 83.5464 294.503 83.4368 294.503 83.2578C294.503 83.0788 294.427 82.9323 294.333 82.9323C294.24 82.9323 294.164 83.0418 294.164 83.1757ZM294.811 83.2589C294.811 83.4405 295.651 83.6829 295.82 83.5503C295.882 83.5015 295.87 83.3805 295.791 83.2815C295.616 83.0598 294.811 83.0413 294.811 83.2589ZM187.009 83.4574C186.011 83.7013 181.534 83.8426 180.095 83.6757L178.807 83.5265L180.75 83.4302C184.132 83.2627 187.741 83.2785 187.009 83.4574ZM297.833 83.6081C297.833 83.701 297.93 83.777 298.048 83.777C298.167 83.777 298.264 83.701 298.264 83.6081C298.264 83.5152 298.167 83.4391 298.048 83.4391C297.93 83.4391 297.833 83.5152 297.833 83.6081ZM86.7999 83.9038C86.8469 84.0986 87.1102 84.2175 87.571 84.2523C88.3462 84.3111 88.5005 84.0541 87.8533 83.783C87.2048 83.5113 86.7183 83.567 86.7999 83.9038ZM87.839 83.946C88.0913 84.0736 88.0318 84.1104 87.5693 84.1124C87.2429 84.1138 86.9758 84.0389 86.9758 83.946C86.9758 83.7324 87.4167 83.7324 87.839 83.946ZM405.492 84.0562C405.868 84.1351 405.922 84.1981 405.707 84.3047C405.319 84.4973 404.448 84.4914 404.448 84.2962C404.448 84.2102 404.278 84.105 404.07 84.0624C403.861 84.0195 403.98 83.9776 404.34 83.968C404.696 83.9583 405.214 83.9982 405.492 84.0562ZM328.817 84.2662C328.751 84.3494 328.818 84.4522 328.966 84.4948C329.344 84.6036 329.801 84.4544 329.655 84.2695C329.499 84.0715 328.972 84.0695 328.817 84.2662ZM333.011 84.525C333.011 84.6816 333.196 84.7908 333.461 84.7908C333.987 84.7908 333.913 84.3959 333.371 84.3138C333.158 84.2814 333.011 84.3675 333.011 84.525ZM60.3713 84.5549C60.2997 84.611 60.1134 84.6171 59.9578 84.5683C59.7856 84.5144 59.8367 84.4743 60.0882 84.4662C60.3156 84.4589 60.443 84.4988 60.3713 84.5549ZM57.7474 85.901C57.3019 86.2498 57.3172 86.481 57.786 86.4778C58.3771 86.4737 58.779 86.2027 58.6335 85.906C58.4658 85.5641 58.1799 85.5625 57.7474 85.901ZM58.3702 86.154C58.302 86.2405 58.0942 86.3113 57.9088 86.3113C57.6343 86.3113 57.6211 86.2644 57.838 86.0598C58.1166 85.7969 58.5865 85.8802 58.3702 86.154ZM185.714 86.8182C185.64 86.9111 185.683 86.9872 185.809 86.9872C185.935 86.9872 186.037 86.9111 186.037 86.8182C186.037 86.7253 185.995 86.6492 185.942 86.6492C185.89 86.6492 185.787 86.7253 185.714 86.8182ZM188.304 86.8182C188.23 86.9111 188.322 86.9872 188.507 86.9872C188.692 86.9872 188.843 86.9111 188.843 86.8182C188.843 86.7253 188.752 86.6492 188.64 86.6492C188.528 86.6492 188.377 86.7253 188.304 86.8182ZM156.096 87.4359C155.95 87.4822 155.659 87.4851 155.449 87.4421C155.239 87.3992 155.359 87.3614 155.715 87.358C156.071 87.3546 156.243 87.3896 156.096 87.4359ZM153.664 87.6691C152.893 87.7368 151.63 87.7885 150.859 87.7838L149.456 87.7751L150.751 87.663C151.463 87.6013 152.726 87.5496 153.556 87.5482L155.067 87.5455L153.664 87.6691ZM37.648 88.0171C37.5675 88.119 37.6586 88.3092 37.8502 88.4401C38.0419 88.5709 38.1019 88.5865 37.9836 88.4746C37.6096 88.1208 37.7466 88.0009 38.524 88.0009C39.3979 88.0009 39.4799 88.1788 38.7938 88.5851C38.3101 88.8715 38.3103 88.8717 38.8477 88.6277C39.1445 88.493 39.4186 88.2589 39.457 88.1075C39.5122 87.8894 39.3461 87.8319 38.6604 87.8319C38.1839 87.8319 37.7283 87.9152 37.648 88.0171ZM32.4137 89.6463C32.522 90.0866 33.2364 90.1358 33.2364 89.7027C33.2364 89.461 33.0978 89.3525 32.789 89.3525C32.4802 89.3525 32.3638 89.4436 32.4137 89.6463ZM35.3946 89.574C35.3946 89.9474 36.2469 90.5365 36.7519 90.5122L37.2291 90.4892L36.7599 90.4176C36.5018 90.3782 36.1398 90.1658 35.9553 89.9454C35.6478 89.578 35.651 89.5383 35.9929 89.4682C36.2676 89.4118 36.238 89.3865 35.8802 89.3721C35.6106 89.3613 35.3946 89.4512 35.3946 89.574ZM36.9485 89.5552C36.5687 89.8526 36.6328 90.1976 37.0672 90.1947C37.3912 90.1925 37.3989 90.168 37.1212 90.0226C36.841 89.8757 36.8538 89.8193 37.2163 89.6027C37.4468 89.465 37.539 89.3525 37.4214 89.3525C37.3038 89.3525 37.091 89.4437 36.9485 89.5552ZM37.7904 89.7257C37.5319 90.0501 37.7552 90.1402 38.1167 89.8572C38.2644 89.7416 38.5572 89.7465 39.0187 89.8724C39.3944 89.9749 39.7937 90.033 39.9061 90.0013C40.0183 89.9697 39.6426 89.8267 39.0711 89.6835C38.0995 89.4402 38.0162 89.4429 37.7904 89.7257ZM33.0206 89.6904C33.0206 89.7833 32.9235 89.8594 32.8048 89.8594C32.6861 89.8594 32.5889 89.7833 32.5889 89.6904C32.5889 89.5975 32.6861 89.5215 32.8048 89.5215C32.9235 89.5215 33.0206 89.5975 33.0206 89.6904ZM40.4521 89.7085C40.3527 89.8344 40.4545 89.8583 40.7631 89.7816C41.3687 89.6311 41.353 89.9325 40.7362 90.2929C40.3559 90.5152 40.3384 90.5533 40.6557 90.4686C40.8784 90.4091 41.1853 90.4414 41.3379 90.5404C41.7933 90.8364 41.9515 90.4051 41.5591 89.9364C41.1922 89.498 40.6986 89.3963 40.4521 89.7085ZM114.856 90.7408C114.701 90.8619 114.601 90.8719 114.601 90.7661C114.601 90.5406 114.856 90.3407 115 90.4536C115.061 90.5016 114.997 90.6308 114.856 90.7408ZM38.1463 90.6573C38.532 90.6948 39.1635 90.6948 39.5492 90.6573C39.9348 90.62 39.6193 90.5892 38.8477 90.5892C38.0762 90.5892 37.7606 90.62 38.1463 90.6573Z" fill="#FFD600"/>
</svg>
