<?xml version="1.0" encoding="utf-8"?>
<!-- Generator: Adobe Illustrator 26.2.1, SVG Export Plug-In . SVG Version: 6.00 Build 0)  -->
<svg version="1.1" id="Layer_1" xmlns="http://www.w3.org/2000/svg" xmlns:xlink="http://www.w3.org/1999/xlink" x="0px" y="0px"
	 viewBox="0 0 350 126.8" style="enable-background:new 0 0 350 126.8;" xml:space="preserve">
<style type="text/css">
	.st0{fill:#FF8800;}
</style>
<path class="st0" d="M261.3,14H7c-3.9,0-7-3.1-7-7s3.1-7,7-7h254.3c3.9,0,7,3.1,7,7S265.2,14,261.3,14L261.3,14z"/>
<path class="st0" d="M175,70.8H7c-3.9,0-7-3.1-7-7s3.1-7,7-7h168c3.9,0,7,3.1,7,7S178.9,70.8,175,70.8z"/>
<path class="st0" d="M343,126.8H7c-3.9,0-7-3.1-7-7s3.1-7,7-7h336c3.9,0,7,3.1,7,7C350,123.7,346.9,126.8,343,126.8z"/>
</svg>
