<svg width="46" height="34" viewBox="0 0 46 34" fill="none" xmlns="http://www.w3.org/2000/svg">
<path d="M46.0002 3.53866C46.0002 5.49271 44.4156 7.07733 42.4615 7.07733H14.1539C12.1998 7.07733 10.6152 5.49271 10.6152 3.53866C10.6152 1.58462 12.1998 0 14.1539 0H42.4615C44.4151 0 45.9998 1.58462 45.9998 3.53866H46.0002Z" fill="#FF8800"/>
<path d="M0 3.53866C0 5.49018 1.58704 7.07733 3.53866 7.07733C5.49029 7.07733 7.07732 5.49029 7.07732 3.53866C7.07732 1.58704 5.49029 0 3.53866 0C1.58672 0 0 1.58704 0 3.53866Z" fill="#FF8800"/>
<path d="M46.0002 16.6158C46.0002 18.5699 44.4156 20.1545 42.4615 20.1545H14.1539C12.1998 20.1545 10.6152 18.5699 10.6152 16.6158C10.6152 14.6618 12.1998 13.0771 14.1539 13.0771H42.4615C44.4151 13.0771 45.9998 14.6618 45.9998 16.6158H46.0002Z" fill="#FF8800"/>
<path d="M0 16.6158C0 18.5673 1.58704 20.1545 3.53866 20.1545C5.49029 20.1545 7.07732 18.5674 7.07732 16.6158C7.07732 14.6642 5.49029 13.0771 3.53866 13.0771C1.58672 13.0771 0 14.6642 0 16.6158Z" fill="#FF8800"/>
<path d="M46.0002 29.693C46.0002 31.647 44.4156 33.2316 42.4615 33.2316H14.1539C12.1998 33.2316 10.6152 31.647 10.6152 29.693C10.6152 27.7389 12.1998 26.1543 14.1539 26.1543H42.4615C44.4151 26.1543 45.9998 27.7389 45.9998 29.693H46.0002Z" fill="#FF8800"/>
<path d="M0 29.693C0 31.6445 1.58704 33.2316 3.53866 33.2316C5.49029 33.2316 7.07732 31.6446 7.07732 29.693C7.07732 27.7413 5.49029 26.1543 3.53866 26.1543C1.58672 26.1543 0 27.7413 0 29.693Z" fill="#FF8800"/>
</svg>
