<svg width="352" height="311" viewBox="0 0 352 311" fill="none" xmlns="http://www.w3.org/2000/svg">
<path fill-rule="evenodd" clip-rule="evenodd" d="M157.993 0.189724C155.023 0.361724 150.253 0.797726 147.393 1.15973C144.533 1.52173 139.223 1.97872 135.593 2.17572C130.537 2.44972 128.525 2.72072 126.993 3.33672C125.893 3.77872 123.138 4.34672 120.871 4.59972C118.604 4.85272 116.079 5.29572 115.261 5.58472C114.443 5.87372 112.158 6.32173 110.183 6.58073C108.209 6.83973 105.873 7.39573 104.993 7.81673C104.113 8.23873 102.077 8.76973 100.469 8.99773C98.8616 9.22573 97.0256 9.68172 96.3886 10.0107C95.7526 10.3397 94.2786 10.8067 93.1126 11.0487C91.9466 11.2897 90.2726 11.8127 89.3926 12.2097C87.2426 13.1807 83.1266 14.5527 80.1926 15.2767C78.8726 15.6027 77.2446 16.2077 76.5736 16.6217C75.5026 17.2827 66.0386 20.6087 65.2296 20.6087C64.3886 20.6087 63.9926 18.1957 63.9926 13.0697C63.9926 6.35572 63.1206 5.25472 59.3926 7.25872C58.7326 7.61372 57.3256 8.34772 56.2656 8.89072C55.2056 9.43372 53.3446 10.6877 52.1306 11.6767C50.9156 12.6667 49.4426 13.8627 48.8566 14.3347C45.5756 16.9827 31.5006 31.7167 29.0476 35.0717C28.1376 36.3167 25.7726 39.4487 23.7926 42.0327C18.8586 48.4707 18.1166 49.4567 17.3466 50.6087C16.9786 51.1587 16.3686 52.0617 15.9916 52.6167C15.6136 53.1707 15.1776 54.0257 15.0216 54.5167C14.8666 55.0067 14.5846 55.4087 14.3966 55.4087C14.2076 55.4087 13.2006 56.7137 12.1576 58.3087C11.1146 59.9037 9.96062 61.5687 9.59162 62.0087C9.22362 62.4487 8.68563 63.4387 8.39563 64.2087C8.10563 64.9787 7.65462 65.7887 7.39262 66.0087C7.12962 66.2287 6.63662 66.9487 6.29462 67.6097C5.95362 68.2697 5.29563 69.1527 4.83363 69.5717C4.37063 69.9907 3.99263 70.6017 3.99263 70.9297C3.99263 71.4797 2.58362 74.6727 0.744624 78.2877C-0.199376 80.1437 -0.254375 84.3917 0.628625 87.2087C0.972625 88.3087 1.41962 90.4527 1.62062 91.9737C1.82262 93.4947 2.25562 95.0367 2.58462 95.3997C2.91362 95.7637 3.39563 96.6787 3.65663 97.4347C4.92763 101.114 9.64362 104.337 13.8216 104.383C17.2446 104.42 19.4616 103.353 27.0696 98.0087C27.4856 97.7167 27.7956 97.8187 28.2156 98.3847C28.8466 99.2347 28.9836 140.044 28.4486 167.609L28.1926 180.809L25.5856 183.306C24.1516 184.68 22.5376 186.112 21.9976 186.49C19.6036 188.168 13.5096 194.695 12.7626 196.383C12.3266 197.369 11.8006 198.28 11.5946 198.408C10.8016 198.898 8.72862 203.932 8.34862 206.289C8.13062 207.646 7.58463 209.844 7.13763 211.174C6.05963 214.372 5.65163 222.814 6.51863 223.984C7.05563 224.71 7.73563 224.768 17.0426 224.877C28.2196 225.009 28.6226 225.057 29.0346 226.31C29.1976 226.804 29.2906 242.133 29.2416 260.374L29.1526 293.539L30.0346 295.774C30.5196 297.003 31.6536 298.974 32.5546 300.155C33.4556 301.335 34.4656 302.709 34.7986 303.208C35.3516 304.035 36.9236 305.404 39.8896 307.641C48.6496 314.248 64.1626 309.558 66.3876 299.631C66.6086 298.646 67.1486 297.15 67.5896 296.305C68.9726 293.651 69.3196 282.061 69.0866 246.332C68.8626 212.126 68.7946 213.413 70.8236 213.408C71.1366 213.407 71.9796 213.048 72.6966 212.611C73.4136 212.174 74.9436 211.47 76.0966 211.047C77.2496 210.623 79.0926 209.945 80.1926 209.538C81.2926 209.131 82.8226 208.414 83.5926 207.943C84.3626 207.472 85.6226 206.902 86.3926 206.676C88.1696 206.155 92.0146 204.528 94.5606 203.22C95.6426 202.664 96.7966 202.209 97.1256 202.209C97.4536 202.209 98.4586 201.782 99.3576 201.26C100.257 200.738 101.443 200.173 101.993 200.005C102.543 199.837 103.396 199.384 103.89 198.999C104.383 198.614 105.457 198.174 106.276 198.02C107.096 197.866 108.259 197.389 108.862 196.96C109.465 196.531 110.551 195.981 111.275 195.738C112 195.495 112.863 195.096 113.193 194.852C114.292 194.04 115.576 193.409 116.128 193.409C116.428 193.409 117.478 192.982 118.46 192.459C119.443 191.937 120.684 191.376 121.22 191.212C121.755 191.048 122.49 190.654 122.853 190.336C123.216 190.018 124.453 189.51 125.602 189.207C126.752 188.903 128.077 188.293 128.548 187.851C129.019 187.409 130.031 186.756 130.798 186.4C132.903 185.425 134.483 184.643 135.593 184.027C136.143 183.722 138.393 182.539 140.593 181.399C142.793 180.258 144.689 179.171 144.807 178.982C144.925 178.794 145.735 178.345 146.607 177.985C147.479 177.624 148.463 177.1 148.793 176.82C149.123 176.539 150.042 176.102 150.834 175.848C151.627 175.594 152.693 174.941 153.204 174.397C153.715 173.854 154.326 173.406 154.563 173.402C154.964 173.395 157.288 171.973 159.592 170.324C160.142 169.931 161.222 169.293 161.992 168.906C163.485 168.157 165.805 166.594 166.793 165.671C167.123 165.363 167.843 164.977 168.393 164.814C168.943 164.651 169.848 164.043 170.404 163.463C170.96 162.883 172.039 161.959 172.803 161.409C181.693 155.003 185.807 147.941 184.674 141.034C184.473 139.81 184.193 135.659 184.051 131.809C183.756 123.813 183.697 123.713 180.271 125.371C179.337 125.823 177.948 126.309 177.183 126.452C176.419 126.595 175.381 127.138 174.877 127.66C174.373 128.182 173.723 128.609 173.433 128.609C173.143 128.609 171.894 129.149 170.657 129.809C169.42 130.469 168.122 131.009 167.772 131.009C167.422 131.009 166.383 131.44 165.464 131.967C164.545 132.495 163.343 133.06 162.793 133.224C162.243 133.388 161.166 133.947 160.4 134.465C159.634 134.984 158.731 135.409 158.394 135.409C158.056 135.409 155.867 136.372 153.529 137.55C151.19 138.727 148.625 139.796 147.829 139.926C147.032 140.055 145.91 140.531 145.335 140.984C144.759 141.436 143.549 142.006 142.644 142.249C141.74 142.492 140.549 143.011 139.997 143.401C139.445 143.791 138.363 144.241 137.593 144.402C136.823 144.564 135.805 145.051 135.331 145.486C134.857 145.921 133.69 146.452 132.737 146.666C131.784 146.88 130.732 147.297 130.399 147.593C130.066 147.889 128.842 148.411 127.679 148.753C126.517 149.094 125.047 149.743 124.413 150.195C123.779 150.646 122.66 151.13 121.927 151.27C121.193 151.41 119.963 151.833 119.193 152.21C118.423 152.587 117.303 153.013 116.703 153.157C116.104 153.301 114.954 153.867 114.148 154.414C113.341 154.961 112.301 155.417 111.837 155.427C110.883 155.446 109.648 155.894 104.793 157.981C102.923 158.784 100.514 159.635 99.4406 159.87C98.3666 160.105 96.9266 160.62 96.2406 161.013C95.5536 161.406 93.9816 162.014 92.7446 162.364C91.5086 162.715 90.2876 163.253 90.0316 163.561C89.7766 163.87 88.7176 164.246 87.6796 164.397C86.6416 164.548 85.0726 164.998 84.1926 165.396C78.1346 168.136 69.3126 170.003 68.0076 168.822C66.8326 167.759 66.7466 73.9587 67.9146 68.2087C68.9786 62.9737 72.7806 58.2817 78.0006 55.7587C78.8006 55.3727 79.6876 54.7757 79.9726 54.4327C80.2576 54.0897 80.7116 53.8087 80.9816 53.8087C81.2526 53.8087 82.2666 53.3877 83.2346 52.8717C84.2036 52.3567 85.7156 51.7067 86.5946 51.4277C87.4736 51.1477 88.6416 50.6367 89.1916 50.2907C90.5856 49.4117 96.0966 47.4587 99.1346 46.7657C100.533 46.4467 102.153 45.9437 102.735 45.6477C103.317 45.3527 105.052 44.8947 106.591 44.6307C108.13 44.3667 110.395 43.8117 111.625 43.3977C112.855 42.9837 115.106 42.5227 116.627 42.3747C118.148 42.2267 120.69 41.6887 122.276 41.1797C123.861 40.6697 126.741 40.1357 128.676 39.9917C130.61 39.8487 133.813 39.4047 135.793 39.0067C137.773 38.6077 141.283 38.1597 143.593 38.0097C145.903 37.8597 149.233 37.3927 150.993 36.9727C152.9 36.5167 157.102 36.0417 161.393 35.7967C165.353 35.5707 170.483 35.1837 172.793 34.9367C180.771 34.0847 184.24 33.8617 196.393 33.4237C211.777 32.8677 211.306 33.0067 213.661 28.3177L215.393 24.8677L215.334 19.8167C215.244 12.1567 212.931 7.66172 206.993 3.60672C204.931 2.19872 203.836 1.94473 194.193 0.637726C190.13 0.0867263 165.123 -0.222276 157.993 0.189724ZM340.393 20.0617C339.843 20.1667 338.763 20.4607 337.993 20.7157C337.223 20.9697 335.513 21.1947 334.193 21.2167C332.873 21.2387 329.813 21.3787 327.393 21.5267C324.973 21.6757 318.223 21.9887 312.393 22.2227C304.619 22.5347 300.94 22.8497 298.593 23.4047C296.833 23.8207 293.233 24.3257 290.593 24.5257C287.953 24.7267 284.713 25.1787 283.393 25.5317C282.073 25.8837 277.933 26.3467 274.193 26.5597C268.763 26.8687 267.03 27.1127 265.593 27.7697C264.603 28.2217 262.983 28.6057 261.993 28.6237C260.131 28.6577 259.326 28.7857 252.593 30.1247C250.393 30.5617 247.063 31.0497 245.193 31.2077C243.323 31.3667 241.073 31.8147 240.193 32.2047C239.313 32.5947 237.358 33.0417 235.85 33.1977C234.341 33.3537 232.091 33.8317 230.85 34.2607C229.608 34.6887 226.703 35.2277 224.393 35.4587C221.543 35.7447 219.789 36.1267 218.937 36.6497C218.246 37.0727 216.446 37.5777 214.937 37.7707C213.428 37.9637 211.072 38.4147 209.702 38.7737C208.331 39.1327 205.858 39.5977 204.206 39.8067C202.554 40.0167 200.516 40.5377 199.677 40.9657C198.838 41.3937 196.807 41.9307 195.164 42.1597C193.521 42.3877 191.011 42.8707 189.585 43.2307C188.159 43.5917 186.093 44.0667 184.993 44.2857C183.893 44.5047 182.082 45.0297 180.968 45.4537C179.854 45.8767 177.399 46.4727 175.512 46.7787C173.624 47.0837 171.707 47.5337 171.25 47.7777C170.794 48.0227 168.868 48.4927 166.971 48.8237C165.073 49.1547 162.965 49.7127 162.286 50.0637C161.606 50.4157 159.148 50.9517 156.822 51.2557C154.496 51.5597 151.962 52.0597 151.191 52.3657C150.419 52.6727 148.529 53.0557 146.991 53.2177C145.452 53.3787 143.473 53.8737 142.593 54.3187C141.472 54.8847 139.436 55.2747 135.793 55.6197C132.933 55.8907 129.423 56.4847 127.993 56.9407C121.004 59.1657 118.861 59.7837 117.329 60.0157C116.413 60.1537 115.35 60.6147 114.965 61.0397C114.581 61.4647 113.542 62.0067 112.657 62.2457C111.772 62.4837 110.408 63.1127 109.627 63.6437C108.846 64.1747 107.991 64.6087 107.727 64.6087C106.302 64.6087 100.435 70.2647 98.8346 73.1787C96.8456 76.8027 96.4026 82.6967 97.9696 84.6877C98.3966 85.2307 99.0536 86.4437 99.4286 87.3827C100.087 89.0257 102.673 91.4087 103.799 91.4087C104.066 91.4087 104.766 91.7867 105.353 92.2487C108.373 94.6237 120.852 94.6837 125.393 92.3447C126.053 92.0047 127.493 91.4867 128.593 91.1937C129.693 90.8997 131.583 90.2937 132.793 89.8477C134.003 89.4007 135.641 89.0287 136.433 89.0217C137.226 89.0147 138.699 88.5697 139.707 88.0337C140.716 87.4977 142.543 86.8737 143.768 86.6467C144.993 86.4207 146.31 86.0687 146.694 85.8657C147.079 85.6617 148.923 85.1857 150.793 84.8077C152.663 84.4297 154.7 83.8587 155.321 83.5397C155.941 83.2207 157.831 82.6987 159.521 82.3797C161.21 82.0597 163.313 81.5107 164.193 81.1597C165.073 80.8077 166.905 80.3787 168.264 80.2067C169.624 80.0347 171.514 79.5347 172.464 79.0967C173.981 78.3977 181 76.7887 184.679 76.2967C187.13 75.9687 187.956 80.2237 188.389 95.4087C188.606 103.034 188.842 106.114 189.323 107.609C189.98 109.652 190.235 114.528 191.214 143.809C191.439 150.519 191.82 156.729 192.063 157.609C192.37 158.727 192.556 177.634 192.679 220.394C192.788 258.276 193.001 281.851 193.239 282.294C194.464 284.585 205.901 285.535 209.712 283.663C210.857 283.101 212.579 282.441 213.539 282.197C216.655 281.405 220.221 276.152 221.269 270.809C222.067 266.742 221.197 177.699 220.338 175.488C220.075 174.812 219.842 166.782 219.715 154.009C219.563 138.817 219.365 132.792 218.938 130.409C218.438 127.622 217.833 115.666 216.992 92.0087C216.867 88.4887 216.497 84.3487 216.169 82.8087C215.842 81.2687 215.439 77.6877 215.275 74.8497L214.975 69.6917L216.271 69.1497C216.984 68.8527 217.978 68.6027 218.48 68.5957C218.982 68.5897 220.293 68.1407 221.393 67.5997C222.493 67.0587 223.718 66.6147 224.115 66.6127C224.512 66.6107 225.592 66.2667 226.515 65.8477C227.438 65.4297 229.568 64.8807 231.249 64.6277C232.93 64.3747 234.993 63.8167 235.834 63.3877C236.674 62.9597 237.909 62.6007 238.578 62.5907C239.246 62.5817 240.513 62.3007 241.393 61.9667C243.772 61.0657 247.066 60.3037 249.993 59.9797C251.423 59.8217 253.202 59.3677 253.946 58.9727C254.69 58.5767 256.31 58.1297 257.546 57.9797C258.782 57.8297 260.693 57.3767 261.793 56.9747C262.893 56.5727 265.323 56.0557 267.193 55.8267C269.063 55.5987 272.033 54.9767 273.793 54.4447C277.98 53.1817 286.271 51.5187 289.751 51.2447C291.468 51.1097 292.778 50.7847 293.222 50.3827C293.706 49.9447 295.842 49.4897 299.864 48.9687C303.125 48.5467 306.873 48.0147 308.193 47.7867C309.513 47.5587 312.953 47.1327 315.838 46.8407C318.723 46.5487 321.963 46.0287 323.038 45.6857C324.314 45.2777 328.744 44.8397 335.793 44.4237C350.158 43.5747 349.864 43.6197 350.604 42.1877C351.484 40.4857 351.417 21.2927 350.529 20.5557C349.928 20.0567 342.346 19.6877 340.393 20.0617Z" fill="#ED1C24"/>
<path fill-rule="evenodd" clip-rule="evenodd" d="M322.766 53.9907C319.913 55.0417 314.555 57.7657 312.993 58.9597C306.961 63.5697 302.565 67.7127 299.104 72.0527C298.383 72.9567 296.713 74.9647 295.393 76.5157C293.27 79.0087 292.206 80.4397 288.188 86.2087C287.652 86.9787 287.032 88.0587 286.81 88.6087C286.587 89.1587 286.141 90.0587 285.817 90.6087C284.756 92.4137 282.081 97.9877 281.787 99.0087C281.628 99.5587 281.216 100.331 280.87 100.724C279.66 102.102 279.711 106.122 280.946 106.591C281.522 106.81 281.993 107.184 281.993 107.422C281.993 107.659 282.769 108.197 283.718 108.617C284.667 109.037 285.774 109.746 286.18 110.194C286.585 110.642 287.088 111.009 287.297 111.009C287.506 111.009 288.212 111.459 288.866 112.009C289.52 112.559 290.286 113.009 290.57 113.009C290.853 113.009 291.593 113.414 292.214 113.909C293.306 114.779 295.026 115.894 297.274 117.188C298.681 117.998 299.879 117.486 302.593 114.913C303.693 113.87 304.809 113.015 305.073 113.013C305.337 113.011 305.697 112.756 305.873 112.446C306.507 111.33 310.573 108.962 312.561 108.55C313.679 108.319 315.013 107.863 315.527 107.537C316.041 107.212 317.301 106.692 318.327 106.382C320.754 105.648 324.927 102.478 327.861 99.1397C329.144 97.6797 330.688 96.0237 331.293 95.4587C331.898 94.8927 332.393 94.2177 332.393 93.9577C332.393 93.6977 332.978 92.7547 333.693 91.8627C335.342 89.8057 336.642 87.7197 337.013 86.5337C337.172 86.0247 337.728 85.0997 338.248 84.4777C338.768 83.8557 339.193 83.0877 339.193 82.7707C339.193 82.4527 339.733 81.1817 340.393 79.9447C341.053 78.7077 341.593 77.3677 341.593 76.9677C341.593 76.5667 341.96 75.2587 342.408 74.0607C346.831 62.2397 334.52 49.6617 322.766 53.9907ZM272.999 116.309C272.578 117.024 271.909 117.958 271.513 118.384C271.117 118.811 270.793 119.325 270.793 119.527C270.793 119.728 270.388 120.392 269.893 121.001C269.398 121.61 268.683 122.626 268.304 123.259C267.926 123.891 267.44 124.679 267.226 125.009C264.469 129.246 264.028 133.089 265.793 137.498C266.797 140.005 270.146 144.209 271.14 144.209C271.355 144.209 272.04 144.626 272.662 145.136C275.291 147.291 279.873 148.181 282.299 147.009C283.209 146.569 284.126 146.209 284.336 146.209C284.685 146.209 286.021 144.544 288.872 140.553C289.465 139.722 290.168 138.318 290.433 137.432C290.699 136.547 291.248 135.521 291.654 135.153C292.061 134.786 292.393 134.268 292.393 134.003C292.393 133.738 292.87 132.821 293.454 131.965C295.746 128.603 295.248 126.694 291.573 124.757C289.085 123.446 287.51 122.439 286.181 121.309C285.47 120.704 284.651 120.209 284.362 120.209C284.073 120.209 283.196 119.784 282.415 119.266C275.154 114.447 274.262 114.167 272.999 116.309ZM317.793 140.476C317.353 140.595 316.093 141.098 314.993 141.593C313.893 142.088 312.273 142.625 311.393 142.785C310.513 142.946 309.523 143.317 309.193 143.61C308.863 143.904 307.333 144.806 305.793 145.616C304.253 146.426 302.633 147.41 302.193 147.803C301.753 148.197 300.645 148.894 299.73 149.353C298.815 149.812 298.005 150.335 297.93 150.514C297.855 150.694 296.893 151.464 295.793 152.225C290.105 156.161 284.079 163.452 284.012 166.479C283.987 167.639 281.655 173.503 281.018 174.009C280.741 174.229 280.172 175.072 279.754 175.881C278.922 177.491 276.535 180.456 274.493 182.418C273.05 183.803 272.789 185.378 273.858 186.26C274.224 186.562 274.862 187.529 275.276 188.409C275.691 189.289 276.757 190.999 277.645 192.209C278.534 193.419 279.523 194.949 279.844 195.609C280.421 196.796 281.1 197.84 283.657 201.477C285.33 203.856 286.516 204.146 289.051 202.799C290.075 202.254 291.205 201.809 291.562 201.809C292.27 201.809 301.134 197.374 302.855 196.159C303.439 195.746 304.089 195.409 304.3 195.409C304.511 195.409 305.362 194.869 306.193 194.209C307.024 193.549 307.946 193.009 308.243 193.009C308.539 193.009 309.923 192.041 311.318 190.858C312.712 189.675 314.256 188.579 314.749 188.423C315.242 188.267 316.578 187.207 317.719 186.067C318.86 184.928 320.693 183.168 321.793 182.156C322.893 181.145 323.977 180.068 324.203 179.763C324.571 179.265 326.667 176.92 331.234 171.894C332.092 170.95 332.793 169.928 332.793 169.622C332.793 169.316 333.026 168.828 333.311 168.538C336.801 164.973 338.685 153.666 336.598 148.809C334.074 142.934 324.456 138.672 317.793 140.476ZM261.793 188.425C261.133 188.733 259.963 189.269 259.193 189.615C258.423 189.961 256.893 190.765 255.793 191.402C254.693 192.038 252.893 193.02 251.793 193.584C243.961 197.598 241.204 204.049 245.074 209.306C245.599 210.019 246.246 211.099 246.511 211.706C247.137 213.137 251.083 216.834 252.608 217.417C256.153 218.772 263.709 218.156 265.593 216.359C266.527 215.468 268.851 213.899 270.393 213.118C271.163 212.728 271.92 212.215 272.074 211.978C272.229 211.741 273.049 211.235 273.896 210.853C275.45 210.152 276.75 208.077 275.946 207.58C275.74 207.452 275.261 206.755 274.882 206.03C274.503 205.306 273.357 203.474 272.335 201.961C271.313 200.447 269.783 197.949 268.935 196.409C264.883 189.052 263.577 187.591 261.793 188.425Z" fill="#0A0909"/>
</svg>
